<mxfile host="app.diagrams.net" modified="2024-03-07T17:04:48.738Z" agent="Mozilla/5.0 (Windows NT 10.0; Win64; x64) AppleWebKit/537.36 (KHTML, like Gecko) Chrome/122.0.0.0 Safari/537.36" etag="WRFA1GZfz7BUKxoX2NT-" version="24.0.2" type="github">
  <diagram id="C5RBs43oDa-KdzZeNtuy" name="Page-1">
    <mxGraphModel dx="5027" dy="3257" grid="1" gridSize="12" guides="1" tooltips="1" connect="1" arrows="1" fold="1" page="1" pageScale="1" pageWidth="827" pageHeight="1169" background="#003366" math="0" shadow="0">
      <root>
        <mxCell id="WIyWlLk6GJQsqaUBKTNV-0" />
        <mxCell id="WIyWlLk6GJQsqaUBKTNV-1" parent="WIyWlLk6GJQsqaUBKTNV-0" />
        <mxCell id="QeEDxV_lBqNEmLMarwRb-2" value="" style="ellipse;whiteSpace=wrap;html=1;aspect=fixed;" parent="WIyWlLk6GJQsqaUBKTNV-1" vertex="1">
          <mxGeometry x="-182" y="115" width="44" height="44" as="geometry" />
        </mxCell>
        <mxCell id="QeEDxV_lBqNEmLMarwRb-4" value="" style="ellipse;shape=doubleEllipse;whiteSpace=wrap;html=1;gradientColor=none;fillColor=default;fillStyle=auto;aspect=fixed;collapsible=0;shadow=0;textShadow=0;perimeterSpacing=0;strokeWidth=6;" parent="WIyWlLk6GJQsqaUBKTNV-1" vertex="1">
          <mxGeometry x="1929.5" y="1068" width="41" height="41" as="geometry" />
        </mxCell>
        <object label="&lt;font style=&quot;font-size: 31px;&quot;&gt;Idle(N)&lt;/font&gt;" id="QeEDxV_lBqNEmLMarwRb-9">
          <mxCell style="swimlane;fontStyle=0;childLayout=stackLayout;horizontal=1;startSize=72;horizontalStack=0;resizeParent=1;resizeParentMax=0;resizeLast=0;collapsible=1;marginBottom=0;whiteSpace=wrap;html=1;fontFamily=Verdana;fontColor=default;rounded=0;gradientColor=none;swimlaneFillColor=none;strokeWidth=4;strokeColor=#FFCCE6;" parent="WIyWlLk6GJQsqaUBKTNV-1" vertex="1">
            <mxGeometry x="4" y="96" width="284" height="264" as="geometry">
              <mxRectangle x="4" y="115" width="72" height="36" as="alternateBounds" />
            </mxGeometry>
          </mxCell>
        </object>
        <mxCell id="QeEDxV_lBqNEmLMarwRb-10" value="&lt;font style=&quot;font-size: 15px;&quot; color=&quot;#ffffff&quot;&gt;Gear :N&lt;/font&gt;" style="text;strokeColor=none;fillColor=none;align=left;verticalAlign=top;spacingLeft=4;spacingRight=4;overflow=hidden;rotatable=0;points=[[0,0.5],[1,0.5]];portConstraint=eastwest;whiteSpace=wrap;html=1;" parent="QeEDxV_lBqNEmLMarwRb-9" vertex="1">
          <mxGeometry y="72" width="284" height="26" as="geometry" />
        </mxCell>
        <mxCell id="QeEDxV_lBqNEmLMarwRb-11" value="&lt;font style=&quot;font-size: 15px;&quot; color=&quot;#ffffff&quot;&gt;ACCS:OFF&lt;/font&gt;" style="text;strokeColor=none;fillColor=none;align=left;verticalAlign=top;spacingLeft=4;spacingRight=4;overflow=hidden;rotatable=0;points=[[0,0.5],[1,0.5]];portConstraint=eastwest;whiteSpace=wrap;html=1;" parent="QeEDxV_lBqNEmLMarwRb-9" vertex="1">
          <mxGeometry y="98" width="284" height="26" as="geometry" />
        </mxCell>
        <object label="&lt;font style=&quot;font-size: 15px;&quot;&gt;LCD_init&lt;/font&gt;" id="QeEDxV_lBqNEmLMarwRb-14">
          <mxCell style="swimlane;fontStyle=0;childLayout=stackLayout;horizontal=1;startSize=36;horizontalStack=0;resizeParent=1;resizeParentMax=0;resizeLast=0;collapsible=1;marginBottom=0;whiteSpace=wrap;html=1;fontFamily=Verdana;fontColor=#FFFFFF;rounded=0;fillColor=#000000;align=left;strokeColor=#67AB9F;strokeWidth=4;" parent="QeEDxV_lBqNEmLMarwRb-9" vertex="1">
            <mxGeometry y="124" width="284" height="140" as="geometry">
              <mxRectangle y="88" width="284" height="36" as="alternateBounds" />
            </mxGeometry>
          </mxCell>
        </object>
        <mxCell id="QeEDxV_lBqNEmLMarwRb-15" value="&lt;font style=&quot;font-size: 15px;&quot; color=&quot;#ffffff&quot;&gt;Gear :N&lt;/font&gt;" style="text;strokeColor=none;fillColor=none;align=left;verticalAlign=top;spacingLeft=4;spacingRight=4;overflow=hidden;rotatable=0;points=[[0,0.5],[1,0.5]];portConstraint=eastwest;whiteSpace=wrap;html=1;" parent="QeEDxV_lBqNEmLMarwRb-14" vertex="1">
          <mxGeometry y="36" width="284" height="26" as="geometry" />
        </mxCell>
        <mxCell id="QeEDxV_lBqNEmLMarwRb-16" value="&lt;font color=&quot;#ffffff&quot;&gt;&lt;span style=&quot;font-size: 15px;&quot;&gt;Assistive Cruise control (On,Off):off&lt;/span&gt;&lt;/font&gt;" style="text;strokeColor=none;fillColor=none;align=left;verticalAlign=top;spacingLeft=4;spacingRight=4;overflow=hidden;rotatable=0;points=[[0,0.5],[1,0.5]];portConstraint=eastwest;whiteSpace=wrap;html=1;" parent="QeEDxV_lBqNEmLMarwRb-14" vertex="1">
          <mxGeometry y="62" width="284" height="26" as="geometry" />
        </mxCell>
        <mxCell id="QeEDxV_lBqNEmLMarwRb-17" value="&lt;font style=&quot;font-size: 15px;&quot; color=&quot;#ffffff&quot;&gt;No need to display distance&lt;/font&gt;" style="text;strokeColor=none;fillColor=none;align=left;verticalAlign=top;spacingLeft=4;spacingRight=4;overflow=hidden;rotatable=0;points=[[0,0.5],[1,0.5]];portConstraint=eastwest;whiteSpace=wrap;html=1;" parent="QeEDxV_lBqNEmLMarwRb-14" vertex="1">
          <mxGeometry y="88" width="284" height="26" as="geometry" />
        </mxCell>
        <mxCell id="FsSQR3Tcq3Qhwz0BQt5I-0" value="&lt;font style=&quot;font-size: 15px;&quot; color=&quot;#ffffff&quot;&gt;Display Speed&lt;/font&gt;" style="text;strokeColor=none;fillColor=none;align=left;verticalAlign=top;spacingLeft=4;spacingRight=4;overflow=hidden;rotatable=0;points=[[0,0.5],[1,0.5]];portConstraint=eastwest;whiteSpace=wrap;html=1;" parent="QeEDxV_lBqNEmLMarwRb-14" vertex="1">
          <mxGeometry y="114" width="284" height="26" as="geometry" />
        </mxCell>
        <mxCell id="QeEDxV_lBqNEmLMarwRb-19" style="edgeStyle=orthogonalEdgeStyle;rounded=0;orthogonalLoop=1;jettySize=auto;html=1;exitX=1;exitY=0.5;exitDx=0;exitDy=0;entryX=0.004;entryY=0.133;entryDx=0;entryDy=0;entryPerimeter=0;strokeWidth=6;strokeColor=#7EA6E0;" parent="WIyWlLk6GJQsqaUBKTNV-1" source="QeEDxV_lBqNEmLMarwRb-2" target="QeEDxV_lBqNEmLMarwRb-9" edge="1">
          <mxGeometry relative="1" as="geometry">
            <Array as="points">
              <mxPoint x="-62" y="149" />
              <mxPoint x="-62" y="132" />
            </Array>
          </mxGeometry>
        </mxCell>
        <mxCell id="QeEDxV_lBqNEmLMarwRb-21" value="&lt;font style=&quot;font-size: 15px;&quot;&gt;&lt;b&gt;Power on&lt;/b&gt;&lt;/font&gt;" style="rounded=0;whiteSpace=wrap;html=1;" parent="WIyWlLk6GJQsqaUBKTNV-1" vertex="1">
          <mxGeometry x="-122" y="91" width="84" height="36" as="geometry" />
        </mxCell>
        <mxCell id="7wikcRFZf2UDu9N1v2jD-101" style="edgeStyle=orthogonalEdgeStyle;rounded=0;orthogonalLoop=1;jettySize=auto;html=1;exitX=0.25;exitY=1;exitDx=0;exitDy=0;entryX=1;entryY=0.5;entryDx=0;entryDy=0;strokeWidth=6;strokeColor=#7EA6E0;" edge="1" parent="WIyWlLk6GJQsqaUBKTNV-1" source="uNYdHs1n68aAT5kjv6AT-13" target="7wikcRFZf2UDu9N1v2jD-96">
          <mxGeometry relative="1" as="geometry" />
        </mxCell>
        <mxCell id="uNYdHs1n68aAT5kjv6AT-13" value="Driving(D)" style="swimlane;startSize=60;strokeWidth=4;strokeColor=#FFCCFF;fontSize=31;" parent="WIyWlLk6GJQsqaUBKTNV-1" vertex="1">
          <mxGeometry x="577" y="-276" width="2746" height="1068" as="geometry">
            <mxRectangle x="577" y="-156" width="96" height="48" as="alternateBounds" />
          </mxGeometry>
        </mxCell>
        <mxCell id="7wikcRFZf2UDu9N1v2jD-3" value="Accelerate" style="swimlane;strokeWidth=3;strokeColor=#F19C99;startSize=22;" vertex="1" parent="uNYdHs1n68aAT5kjv6AT-13">
          <mxGeometry x="84" y="660" width="249" height="94" as="geometry" />
        </mxCell>
        <mxCell id="7wikcRFZf2UDu9N1v2jD-4" value="&lt;font style=&quot;font-size: 15px;&quot; color=&quot;#ffffff&quot;&gt;Increase Speed&lt;/font&gt;" style="text;strokeColor=default;fillColor=none;align=left;verticalAlign=top;spacingLeft=4;spacingRight=4;overflow=hidden;rotatable=0;points=[[0,0.5],[1,0.5]];portConstraint=eastwest;whiteSpace=wrap;html=1;strokeWidth=3;" vertex="1" parent="7wikcRFZf2UDu9N1v2jD-3">
          <mxGeometry y="27" width="240" height="26" as="geometry" />
        </mxCell>
        <mxCell id="7wikcRFZf2UDu9N1v2jD-5" value="&lt;font style=&quot;font-size: 15px;&quot; color=&quot;#ffffff&quot;&gt;Make Blue led on&amp;nbsp;&lt;/font&gt;" style="text;strokeColor=default;fillColor=none;align=left;verticalAlign=top;spacingLeft=4;spacingRight=4;overflow=hidden;rotatable=0;points=[[0,0.5,0,0,0],[1,0.5,0,0,0]];portConstraint=eastwest;whiteSpace=wrap;html=1;strokeWidth=3;" vertex="1" parent="7wikcRFZf2UDu9N1v2jD-3">
          <mxGeometry y="53" width="240" height="26" as="geometry" />
        </mxCell>
        <mxCell id="7wikcRFZf2UDu9N1v2jD-32" style="edgeStyle=orthogonalEdgeStyle;rounded=0;orthogonalLoop=1;jettySize=auto;html=1;exitX=0.75;exitY=0;exitDx=0;exitDy=0;entryX=1;entryY=0.5;entryDx=0;entryDy=0;strokeWidth=3;strokeColor=#9AC7BF;" edge="1" parent="uNYdHs1n68aAT5kjv6AT-13" source="7wikcRFZf2UDu9N1v2jD-18" target="FsSQR3Tcq3Qhwz0BQt5I-2">
          <mxGeometry relative="1" as="geometry" />
        </mxCell>
        <mxCell id="7wikcRFZf2UDu9N1v2jD-18" value="Braking" style="swimlane;strokeWidth=3;strokeColor=#F19C99;startSize=26;" vertex="1" parent="uNYdHs1n68aAT5kjv6AT-13">
          <mxGeometry x="540" y="670" width="249" height="94" as="geometry" />
        </mxCell>
        <mxCell id="7wikcRFZf2UDu9N1v2jD-19" value="&lt;font style=&quot;font-size: 15px;&quot; color=&quot;#ffffff&quot;&gt;Decrease Speed&lt;/font&gt;" style="text;strokeColor=default;fillColor=none;align=left;verticalAlign=top;spacingLeft=4;spacingRight=4;overflow=hidden;rotatable=0;points=[[0,0.5],[1,0.5]];portConstraint=eastwest;whiteSpace=wrap;html=1;strokeWidth=3;" vertex="1" parent="7wikcRFZf2UDu9N1v2jD-18">
          <mxGeometry y="27" width="240" height="26" as="geometry" />
        </mxCell>
        <mxCell id="7wikcRFZf2UDu9N1v2jD-20" value="&lt;font style=&quot;font-size: 15px;&quot; color=&quot;#ffffff&quot;&gt;Make Red led on&amp;nbsp;&lt;/font&gt;" style="text;strokeColor=default;fillColor=none;align=left;verticalAlign=top;spacingLeft=4;spacingRight=4;overflow=hidden;rotatable=0;points=[[0,0.5,0,0,0],[1,0.5,0,0,0]];portConstraint=eastwest;whiteSpace=wrap;html=1;strokeWidth=3;" vertex="1" parent="7wikcRFZf2UDu9N1v2jD-18">
          <mxGeometry y="53" width="240" height="26" as="geometry" />
        </mxCell>
        <mxCell id="7wikcRFZf2UDu9N1v2jD-44" style="edgeStyle=orthogonalEdgeStyle;rounded=0;orthogonalLoop=1;jettySize=auto;html=1;exitX=1;exitY=0;exitDx=0;exitDy=0;strokeWidth=3;strokeColor=#9AC7BF;entryX=0;entryY=-0.01;entryDx=0;entryDy=0;entryPerimeter=0;" edge="1" parent="uNYdHs1n68aAT5kjv6AT-13" source="FsSQR3Tcq3Qhwz0BQt5I-2" target="7wikcRFZf2UDu9N1v2jD-41">
          <mxGeometry relative="1" as="geometry">
            <mxPoint x="1188" y="156" as="targetPoint" />
            <Array as="points">
              <mxPoint x="336" y="96" />
              <mxPoint x="762" y="96" />
              <mxPoint x="762" y="157" />
              <mxPoint x="1188" y="157" />
              <mxPoint x="1188" y="155" />
            </Array>
          </mxGeometry>
        </mxCell>
        <mxCell id="FsSQR3Tcq3Qhwz0BQt5I-2" value="Init_state_in_D" style="swimlane;strokeWidth=3;strokeColor=#F19C99;" parent="uNYdHs1n68aAT5kjv6AT-13" vertex="1">
          <mxGeometry x="60" y="60" width="276" height="365" as="geometry">
            <mxRectangle x="60" y="60" width="120" height="24" as="alternateBounds" />
          </mxGeometry>
        </mxCell>
        <mxCell id="FsSQR3Tcq3Qhwz0BQt5I-3" value="&lt;font style=&quot;font-size: 15px;&quot; color=&quot;#ffffff&quot;&gt;Gear :D&lt;/font&gt;" style="text;strokeColor=default;fillColor=none;align=left;verticalAlign=top;spacingLeft=4;spacingRight=4;overflow=hidden;rotatable=0;points=[[0,0.5],[1,0.5]];portConstraint=eastwest;whiteSpace=wrap;html=1;strokeWidth=2;perimeterSpacing=13;" parent="FsSQR3Tcq3Qhwz0BQt5I-2" vertex="1">
          <mxGeometry y="27" width="240" height="26" as="geometry" />
        </mxCell>
        <mxCell id="FsSQR3Tcq3Qhwz0BQt5I-4" value="&lt;font style=&quot;font-size: 15px;&quot; color=&quot;#ffffff&quot;&gt;ACCS:OFF&lt;/font&gt;" style="text;strokeColor=default;fillColor=none;align=left;verticalAlign=top;spacingLeft=4;spacingRight=4;overflow=hidden;rotatable=0;points=[[0,0.5,0,0,0],[1,0.5,0,0,0]];portConstraint=eastwest;whiteSpace=wrap;html=1;strokeWidth=3;" parent="FsSQR3Tcq3Qhwz0BQt5I-2" vertex="1">
          <mxGeometry y="53" width="240" height="26" as="geometry" />
        </mxCell>
        <object label="&lt;font style=&quot;font-size: 15px;&quot;&gt;LCD_init&lt;/font&gt;" id="FsSQR3Tcq3Qhwz0BQt5I-5">
          <mxCell style="swimlane;fontStyle=0;childLayout=stackLayout;horizontal=1;startSize=36;horizontalStack=0;resizeParent=1;resizeParentMax=0;resizeLast=0;collapsible=1;marginBottom=0;whiteSpace=wrap;html=1;fontFamily=Verdana;fontColor=#FFFFFF;rounded=0;fillColor=#000000;align=left;strokeColor=#67AB9F;strokeWidth=4;" parent="FsSQR3Tcq3Qhwz0BQt5I-2" vertex="1">
            <mxGeometry y="180" width="276" height="140" as="geometry">
              <mxRectangle y="144" width="240" height="36" as="alternateBounds" />
            </mxGeometry>
          </mxCell>
        </object>
        <mxCell id="FsSQR3Tcq3Qhwz0BQt5I-6" value="&lt;font style=&quot;font-size: 15px;&quot; color=&quot;#ffffff&quot;&gt;Gear :D&lt;/font&gt;" style="text;strokeColor=default;fillColor=none;align=left;verticalAlign=top;spacingLeft=4;spacingRight=4;overflow=hidden;rotatable=0;points=[[0,0.5],[1,0.5]];portConstraint=eastwest;whiteSpace=wrap;html=1;strokeWidth=2;" parent="FsSQR3Tcq3Qhwz0BQt5I-5" vertex="1">
          <mxGeometry y="36" width="276" height="26" as="geometry" />
        </mxCell>
        <mxCell id="FsSQR3Tcq3Qhwz0BQt5I-7" value="&lt;font color=&quot;#ffffff&quot;&gt;&lt;span style=&quot;font-size: 15px;&quot;&gt;Assistive Cruise control (On,Off):off&lt;/span&gt;&lt;/font&gt;" style="text;strokeColor=default;fillColor=none;align=left;verticalAlign=top;spacingLeft=4;spacingRight=4;overflow=hidden;rotatable=0;points=[[0,0.5],[1,0.5]];portConstraint=eastwest;whiteSpace=wrap;html=1;strokeWidth=3;" parent="FsSQR3Tcq3Qhwz0BQt5I-5" vertex="1">
          <mxGeometry y="62" width="276" height="26" as="geometry" />
        </mxCell>
        <mxCell id="FsSQR3Tcq3Qhwz0BQt5I-8" value="&lt;font style=&quot;font-size: 15px;&quot; color=&quot;#ffffff&quot;&gt;No need to display distance&lt;/font&gt;" style="text;strokeColor=default;fillColor=none;align=left;verticalAlign=top;spacingLeft=4;spacingRight=4;overflow=hidden;rotatable=0;points=[[0,0.5],[1,0.5]];portConstraint=eastwest;whiteSpace=wrap;html=1;strokeWidth=3;" parent="FsSQR3Tcq3Qhwz0BQt5I-5" vertex="1">
          <mxGeometry y="88" width="276" height="26" as="geometry" />
        </mxCell>
        <mxCell id="FsSQR3Tcq3Qhwz0BQt5I-9" value="&lt;font style=&quot;font-size: 15px;&quot; color=&quot;#ffffff&quot;&gt;Display Speed&lt;/font&gt;" style="text;strokeColor=default;fillColor=none;align=left;verticalAlign=top;spacingLeft=4;spacingRight=4;overflow=hidden;rotatable=0;points=[[0,0.5],[1,0.5]];portConstraint=eastwest;whiteSpace=wrap;html=1;strokeWidth=3;" parent="FsSQR3Tcq3Qhwz0BQt5I-5" vertex="1">
          <mxGeometry y="114" width="276" height="26" as="geometry" />
        </mxCell>
        <mxCell id="7wikcRFZf2UDu9N1v2jD-1" value="&lt;font style=&quot;font-size: 15px;&quot; color=&quot;#ffffff&quot;&gt;Dicrease_speed until reach zero&lt;/font&gt;" style="text;strokeColor=default;fillColor=none;align=left;verticalAlign=top;spacingLeft=4;spacingRight=4;overflow=hidden;rotatable=0;points=[[0,0.5,0,0,0],[1,0.5,0,0,0]];portConstraint=eastwest;whiteSpace=wrap;html=1;strokeWidth=3;" vertex="1" parent="FsSQR3Tcq3Qhwz0BQt5I-2">
          <mxGeometry y="79" width="240" height="26" as="geometry" />
        </mxCell>
        <mxCell id="7wikcRFZf2UDu9N1v2jD-26" value="&lt;font style=&quot;font-size: 15px;&quot; color=&quot;#ffffff&quot;&gt;Make blue led off&lt;/font&gt;" style="text;strokeColor=default;fillColor=none;align=left;verticalAlign=top;spacingLeft=4;spacingRight=4;overflow=hidden;rotatable=0;points=[[0,0.5,0,0,0],[1,0.5,0,0,0]];portConstraint=eastwest;whiteSpace=wrap;html=1;strokeWidth=3;" vertex="1" parent="FsSQR3Tcq3Qhwz0BQt5I-2">
          <mxGeometry y="105" width="240" height="26" as="geometry" />
        </mxCell>
        <mxCell id="7wikcRFZf2UDu9N1v2jD-48" value="&lt;font style=&quot;font-size: 15px;&quot; color=&quot;#ffffff&quot;&gt;Make Red led off&lt;/font&gt;" style="text;strokeColor=default;fillColor=none;align=left;verticalAlign=top;spacingLeft=4;spacingRight=4;overflow=hidden;rotatable=0;points=[[0,0.5,0,0,0],[1,0.5,0,0,0]];portConstraint=eastwest;whiteSpace=wrap;html=1;strokeWidth=3;" vertex="1" parent="FsSQR3Tcq3Qhwz0BQt5I-2">
          <mxGeometry y="131" width="240" height="26" as="geometry" />
        </mxCell>
        <mxCell id="7wikcRFZf2UDu9N1v2jD-13" style="edgeStyle=orthogonalEdgeStyle;rounded=0;orthogonalLoop=1;jettySize=auto;html=1;exitX=0.25;exitY=1;exitDx=0;exitDy=0;entryX=0.25;entryY=0;entryDx=0;entryDy=0;strokeWidth=3;strokeColor=#9AC7BF;" edge="1" parent="uNYdHs1n68aAT5kjv6AT-13" target="7wikcRFZf2UDu9N1v2jD-3">
          <mxGeometry relative="1" as="geometry">
            <mxPoint x="134.25" y="425" as="sourcePoint" />
          </mxGeometry>
        </mxCell>
        <mxCell id="7wikcRFZf2UDu9N1v2jD-14" style="edgeStyle=orthogonalEdgeStyle;rounded=0;orthogonalLoop=1;jettySize=auto;html=1;exitX=0.75;exitY=0;exitDx=0;exitDy=0;entryX=0.75;entryY=1;entryDx=0;entryDy=0;strokeWidth=3;strokeColor=#9AC7BF;" edge="1" parent="uNYdHs1n68aAT5kjv6AT-13" source="7wikcRFZf2UDu9N1v2jD-3">
          <mxGeometry relative="1" as="geometry">
            <mxPoint x="258.75000000000045" y="425" as="targetPoint" />
          </mxGeometry>
        </mxCell>
        <mxCell id="7wikcRFZf2UDu9N1v2jD-25" value="&lt;b&gt;&lt;font style=&quot;font-size: 17px;&quot;&gt;Braking BTN released&lt;/font&gt;&lt;/b&gt;" style="rounded=0;whiteSpace=wrap;html=1;" vertex="1" parent="uNYdHs1n68aAT5kjv6AT-13">
          <mxGeometry x="684" y="516" width="180" height="65" as="geometry" />
        </mxCell>
        <mxCell id="7wikcRFZf2UDu9N1v2jD-29" style="edgeStyle=elbowEdgeStyle;rounded=0;orthogonalLoop=1;jettySize=auto;html=1;exitX=1;exitY=0.75;exitDx=0;exitDy=0;entryX=0.197;entryY=0.027;entryDx=0;entryDy=0;entryPerimeter=0;elbow=vertical;strokeWidth=3;strokeColor=#9AC7BF;" edge="1" parent="uNYdHs1n68aAT5kjv6AT-13" source="FsSQR3Tcq3Qhwz0BQt5I-2" target="7wikcRFZf2UDu9N1v2jD-18">
          <mxGeometry relative="1" as="geometry">
            <Array as="points">
              <mxPoint x="456" y="334" />
            </Array>
          </mxGeometry>
        </mxCell>
        <mxCell id="7wikcRFZf2UDu9N1v2jD-45" style="edgeStyle=orthogonalEdgeStyle;rounded=0;orthogonalLoop=1;jettySize=auto;html=1;exitX=0;exitY=0.5;exitDx=0;exitDy=0;strokeWidth=3;strokeColor=#9AC7BF;" edge="1" parent="uNYdHs1n68aAT5kjv6AT-13" source="7wikcRFZf2UDu9N1v2jD-33">
          <mxGeometry relative="1" as="geometry">
            <mxPoint x="336" y="180" as="targetPoint" />
          </mxGeometry>
        </mxCell>
        <mxCell id="7wikcRFZf2UDu9N1v2jD-49" style="edgeStyle=orthogonalEdgeStyle;rounded=0;orthogonalLoop=1;jettySize=auto;html=1;exitX=0.25;exitY=1;exitDx=0;exitDy=0;entryX=1;entryY=0.5;entryDx=0;entryDy=0;strokeWidth=3;strokeColor=#9AC7BF;" edge="1" parent="uNYdHs1n68aAT5kjv6AT-13" source="7wikcRFZf2UDu9N1v2jD-33" target="7wikcRFZf2UDu9N1v2jD-18">
          <mxGeometry relative="1" as="geometry">
            <Array as="points">
              <mxPoint x="1008" y="425" />
              <mxPoint x="1008" y="717" />
            </Array>
          </mxGeometry>
        </mxCell>
        <mxCell id="7wikcRFZf2UDu9N1v2jD-79" style="edgeStyle=orthogonalEdgeStyle;rounded=0;orthogonalLoop=1;jettySize=auto;html=1;exitX=1;exitY=0.25;exitDx=0;exitDy=0;entryX=0;entryY=0.5;entryDx=0;entryDy=0;strokeWidth=4;strokeColor=#67AB9F;" edge="1" parent="uNYdHs1n68aAT5kjv6AT-13" source="7wikcRFZf2UDu9N1v2jD-33" target="7wikcRFZf2UDu9N1v2jD-56">
          <mxGeometry relative="1" as="geometry">
            <Array as="points">
              <mxPoint x="1536" y="120" />
              <mxPoint x="1662" y="120" />
              <mxPoint x="1662" y="128" />
            </Array>
          </mxGeometry>
        </mxCell>
        <mxCell id="7wikcRFZf2UDu9N1v2jD-33" value="Enabled ACCS" style="swimlane;strokeWidth=3;strokeColor=#F19C99;startSize=36;" vertex="1" parent="uNYdHs1n68aAT5kjv6AT-13">
          <mxGeometry x="1200" y="60" width="336" height="365" as="geometry" />
        </mxCell>
        <mxCell id="7wikcRFZf2UDu9N1v2jD-34" value="&lt;font style=&quot;font-size: 15px;&quot; color=&quot;#ffffff&quot;&gt;Gear :D&lt;/font&gt;" style="text;strokeColor=default;fillColor=none;align=left;verticalAlign=top;spacingLeft=4;spacingRight=4;overflow=hidden;rotatable=0;points=[[0,0.5],[1,0.5]];portConstraint=eastwest;whiteSpace=wrap;html=1;strokeWidth=3;" vertex="1" parent="7wikcRFZf2UDu9N1v2jD-33">
          <mxGeometry y="43" width="240" height="26" as="geometry" />
        </mxCell>
        <mxCell id="7wikcRFZf2UDu9N1v2jD-35" value="&lt;font style=&quot;font-size: 15px;&quot; color=&quot;#ffffff&quot;&gt;CCS:ON&lt;/font&gt;" style="text;strokeColor=default;fillColor=none;align=left;verticalAlign=top;spacingLeft=4;spacingRight=4;overflow=hidden;rotatable=0;points=[[0,0.5,0,0,0],[1,0.5,0,0,0]];portConstraint=eastwest;whiteSpace=wrap;html=1;strokeWidth=3;" vertex="1" parent="7wikcRFZf2UDu9N1v2jD-33">
          <mxGeometry y="69" width="240" height="26" as="geometry" />
        </mxCell>
        <object label="&lt;font style=&quot;font-size: 15px;&quot;&gt;LCD_init&lt;/font&gt;" id="7wikcRFZf2UDu9N1v2jD-36">
          <mxCell style="swimlane;fontStyle=0;childLayout=stackLayout;horizontal=1;startSize=36;horizontalStack=0;resizeParent=1;resizeParentMax=0;resizeLast=0;collapsible=1;marginBottom=0;whiteSpace=wrap;html=1;fontFamily=Verdana;fontColor=#FFFFFF;rounded=0;fillColor=#000000;align=left;strokeColor=#67AB9F;strokeWidth=4;" vertex="1" parent="7wikcRFZf2UDu9N1v2jD-33">
            <mxGeometry y="132" width="336" height="140" as="geometry">
              <mxRectangle y="160" width="240" height="36" as="alternateBounds" />
            </mxGeometry>
          </mxCell>
        </object>
        <mxCell id="7wikcRFZf2UDu9N1v2jD-37" value="&lt;font style=&quot;font-size: 15px;&quot; color=&quot;#ffffff&quot;&gt;Gear :D&lt;/font&gt;" style="text;strokeColor=default;fillColor=none;align=left;verticalAlign=top;spacingLeft=4;spacingRight=4;overflow=hidden;rotatable=0;points=[[0,0.5],[1,0.5]];portConstraint=eastwest;whiteSpace=wrap;html=1;strokeWidth=3;" vertex="1" parent="7wikcRFZf2UDu9N1v2jD-36">
          <mxGeometry y="36" width="336" height="26" as="geometry" />
        </mxCell>
        <mxCell id="7wikcRFZf2UDu9N1v2jD-38" value="&lt;font color=&quot;#ffffff&quot;&gt;&lt;span style=&quot;font-size: 15px;&quot;&gt;Assistive Cruise control (On,Off):ON&lt;/span&gt;&lt;/font&gt;" style="text;strokeColor=default;fillColor=none;align=left;verticalAlign=top;spacingLeft=4;spacingRight=4;overflow=hidden;rotatable=0;points=[[0,0.5],[1,0.5]];portConstraint=eastwest;whiteSpace=wrap;html=1;strokeWidth=3;" vertex="1" parent="7wikcRFZf2UDu9N1v2jD-36">
          <mxGeometry y="62" width="336" height="26" as="geometry" />
        </mxCell>
        <mxCell id="7wikcRFZf2UDu9N1v2jD-39" value="&lt;font style=&quot;font-size: 15px;&quot; color=&quot;#ffffff&quot;&gt;Display distance&lt;/font&gt;" style="text;strokeColor=default;fillColor=none;align=left;verticalAlign=top;spacingLeft=4;spacingRight=4;overflow=hidden;rotatable=0;points=[[0,0.5],[1,0.5]];portConstraint=eastwest;whiteSpace=wrap;html=1;strokeWidth=3;" vertex="1" parent="7wikcRFZf2UDu9N1v2jD-36">
          <mxGeometry y="88" width="336" height="26" as="geometry" />
        </mxCell>
        <mxCell id="7wikcRFZf2UDu9N1v2jD-40" value="&lt;font style=&quot;font-size: 15px;&quot; color=&quot;#ffffff&quot;&gt;Display Speed&lt;/font&gt;" style="text;strokeColor=default;fillColor=none;align=left;verticalAlign=top;spacingLeft=4;spacingRight=4;overflow=hidden;rotatable=0;points=[[0,0.5],[1,0.5]];portConstraint=eastwest;whiteSpace=wrap;html=1;strokeWidth=3;" vertex="1" parent="7wikcRFZf2UDu9N1v2jD-36">
          <mxGeometry y="114" width="336" height="26" as="geometry" />
        </mxCell>
        <mxCell id="7wikcRFZf2UDu9N1v2jD-41" value="&lt;font color=&quot;#ffffff&quot;&gt;&lt;span style=&quot;font-size: 15px;&quot;&gt;keep last speed when pressed&lt;/span&gt;&lt;/font&gt;" style="text;strokeColor=default;fillColor=none;align=left;verticalAlign=top;spacingLeft=4;spacingRight=4;overflow=hidden;rotatable=0;points=[[0,0.5,0,0,0],[1,0.5,0,0,0]];portConstraint=eastwest;whiteSpace=wrap;html=1;strokeWidth=3;" vertex="1" parent="7wikcRFZf2UDu9N1v2jD-33">
          <mxGeometry y="95" width="240" height="26" as="geometry" />
        </mxCell>
        <mxCell id="7wikcRFZf2UDu9N1v2jD-43" style="edgeStyle=orthogonalEdgeStyle;rounded=0;orthogonalLoop=1;jettySize=auto;html=1;exitX=0;exitY=0.25;exitDx=0;exitDy=0;entryX=0;entryY=0.5;entryDx=0;entryDy=0;entryPerimeter=0;strokeWidth=3;strokeColor=#9AC7BF;" edge="1" parent="uNYdHs1n68aAT5kjv6AT-13" source="uNYdHs1n68aAT5kjv6AT-13" target="7wikcRFZf2UDu9N1v2jD-26">
          <mxGeometry relative="1" as="geometry">
            <Array as="points">
              <mxPoint x="24" y="211" />
              <mxPoint x="24" y="178" />
            </Array>
          </mxGeometry>
        </mxCell>
        <mxCell id="7wikcRFZf2UDu9N1v2jD-24" value="&lt;b&gt;&lt;font style=&quot;font-size: 17px;&quot;&gt;Braking BTN pressed&lt;/font&gt;&lt;/b&gt;" style="rounded=0;whiteSpace=wrap;html=1;" vertex="1" parent="uNYdHs1n68aAT5kjv6AT-13">
          <mxGeometry x="492" y="516" width="180" height="65" as="geometry" />
        </mxCell>
        <mxCell id="7wikcRFZf2UDu9N1v2jD-46" value="&lt;b&gt;&lt;font style=&quot;font-size: 17px;&quot;&gt;ACCS BTN Pressed&lt;/font&gt;&lt;/b&gt;" style="rounded=0;whiteSpace=wrap;html=1;" vertex="1" parent="uNYdHs1n68aAT5kjv6AT-13">
          <mxGeometry x="816" y="96" width="180" height="65" as="geometry" />
        </mxCell>
        <mxCell id="7wikcRFZf2UDu9N1v2jD-47" value="&lt;b&gt;&lt;font style=&quot;font-size: 17px;&quot;&gt;ACCS BTN&lt;/font&gt;&lt;/b&gt;&lt;b&gt;&lt;font style=&quot;font-size: 17px;&quot;&gt;&amp;nbsp;released&lt;/font&gt;&lt;/b&gt;" style="rounded=0;whiteSpace=wrap;html=1;" vertex="1" parent="uNYdHs1n68aAT5kjv6AT-13">
          <mxGeometry x="828" y="252" width="180" height="65" as="geometry" />
        </mxCell>
        <mxCell id="7wikcRFZf2UDu9N1v2jD-51" value="&lt;b&gt;&lt;font style=&quot;font-size: 17px;&quot;&gt;Braking BTN pressed&lt;/font&gt;&lt;/b&gt;&lt;div&gt;&lt;b&gt;&lt;font style=&quot;font-size: 17px;&quot;&gt;during ACCS is on&lt;/font&gt;&lt;/b&gt;&lt;/div&gt;" style="rounded=0;whiteSpace=wrap;html=1;" vertex="1" parent="uNYdHs1n68aAT5kjv6AT-13">
          <mxGeometry x="888" y="636" width="180" height="65" as="geometry" />
        </mxCell>
        <mxCell id="7wikcRFZf2UDu9N1v2jD-16" value="&lt;b&gt;&lt;font style=&quot;font-size: 17px;&quot;&gt;Accelerate BTN pressed&lt;/font&gt;&lt;/b&gt;" style="rounded=0;whiteSpace=wrap;html=1;" vertex="1" parent="uNYdHs1n68aAT5kjv6AT-13">
          <mxGeometry x="12" y="495" width="180" height="65" as="geometry" />
        </mxCell>
        <mxCell id="7wikcRFZf2UDu9N1v2jD-17" value="&lt;b&gt;&lt;font style=&quot;font-size: 17px;&quot;&gt;Accelerate BTN released&lt;/font&gt;&lt;/b&gt;" style="rounded=0;whiteSpace=wrap;html=1;" vertex="1" parent="uNYdHs1n68aAT5kjv6AT-13">
          <mxGeometry x="228" y="540" width="180" height="65" as="geometry" />
        </mxCell>
        <mxCell id="7wikcRFZf2UDu9N1v2jD-80" style="edgeStyle=orthogonalEdgeStyle;rounded=0;orthogonalLoop=1;jettySize=auto;html=1;exitX=0;exitY=0.75;exitDx=0;exitDy=0;strokeWidth=4;strokeColor=#67AB9F;" edge="1" parent="uNYdHs1n68aAT5kjv6AT-13" source="7wikcRFZf2UDu9N1v2jD-55">
          <mxGeometry relative="1" as="geometry">
            <mxPoint x="1536" y="168" as="targetPoint" />
          </mxGeometry>
        </mxCell>
        <mxCell id="7wikcRFZf2UDu9N1v2jD-55" value="Toggle yellow led" style="swimlane;strokeWidth=3;strokeColor=#F19C99;startSize=36;" vertex="1" parent="uNYdHs1n68aAT5kjv6AT-13">
          <mxGeometry x="1788" y="72" width="336" height="141" as="geometry" />
        </mxCell>
        <mxCell id="7wikcRFZf2UDu9N1v2jD-56" value="&lt;font style=&quot;font-size: 15px;&quot; color=&quot;#ffffff&quot;&gt;Toggle yellow led only&lt;/font&gt;" style="text;strokeColor=default;fillColor=none;align=left;verticalAlign=top;spacingLeft=4;spacingRight=4;overflow=hidden;rotatable=0;points=[[0,0.5],[1,0.5]];portConstraint=eastwest;whiteSpace=wrap;html=1;strokeWidth=3;" vertex="1" parent="7wikcRFZf2UDu9N1v2jD-55">
          <mxGeometry y="43" width="336" height="26" as="geometry" />
        </mxCell>
        <mxCell id="7wikcRFZf2UDu9N1v2jD-82" style="edgeStyle=orthogonalEdgeStyle;rounded=0;orthogonalLoop=1;jettySize=auto;html=1;exitX=0.25;exitY=0;exitDx=0;exitDy=0;entryX=1;entryY=0.75;entryDx=0;entryDy=0;strokeWidth=4;strokeColor=#67AB9F;" edge="1" parent="uNYdHs1n68aAT5kjv6AT-13" source="7wikcRFZf2UDu9N1v2jD-64" target="7wikcRFZf2UDu9N1v2jD-55">
          <mxGeometry relative="1" as="geometry" />
        </mxCell>
        <mxCell id="7wikcRFZf2UDu9N1v2jD-83" style="edgeStyle=orthogonalEdgeStyle;rounded=0;orthogonalLoop=1;jettySize=auto;html=1;exitX=0.5;exitY=1;exitDx=0;exitDy=0;entryX=1;entryY=0.5;entryDx=0;entryDy=0;strokeWidth=4;strokeColor=#67AB9F;" edge="1" parent="uNYdHs1n68aAT5kjv6AT-13" source="7wikcRFZf2UDu9N1v2jD-64" target="7wikcRFZf2UDu9N1v2jD-70">
          <mxGeometry relative="1" as="geometry" />
        </mxCell>
        <mxCell id="7wikcRFZf2UDu9N1v2jD-64" value="Toggle yellow &amp; red led" style="swimlane;strokeWidth=3;strokeColor=#F19C99;startSize=36;" vertex="1" parent="uNYdHs1n68aAT5kjv6AT-13">
          <mxGeometry x="2172" y="296" width="336" height="199" as="geometry" />
        </mxCell>
        <mxCell id="7wikcRFZf2UDu9N1v2jD-65" value="&lt;font style=&quot;font-size: 15px;&quot; color=&quot;#ffffff&quot;&gt;Toggle yellow led&amp;nbsp;&lt;/font&gt;" style="text;strokeColor=default;fillColor=none;align=left;verticalAlign=top;spacingLeft=4;spacingRight=4;overflow=hidden;rotatable=0;points=[[0,0.5],[1,0.5]];portConstraint=eastwest;whiteSpace=wrap;html=1;strokeWidth=3;" vertex="1" parent="7wikcRFZf2UDu9N1v2jD-64">
          <mxGeometry y="43" width="336" height="26" as="geometry" />
        </mxCell>
        <mxCell id="7wikcRFZf2UDu9N1v2jD-66" value="&lt;font style=&quot;font-size: 15px;&quot; color=&quot;#ffffff&quot;&gt;Toggle red led&amp;nbsp;&lt;/font&gt;" style="text;strokeColor=default;fillColor=none;align=left;verticalAlign=top;spacingLeft=4;spacingRight=4;overflow=hidden;rotatable=0;points=[[0,0.5,0,0,0],[1,0.5,0,0,0]];portConstraint=eastwest;whiteSpace=wrap;html=1;strokeWidth=3;" vertex="1" parent="7wikcRFZf2UDu9N1v2jD-64">
          <mxGeometry y="69" width="336" height="26" as="geometry" />
        </mxCell>
        <mxCell id="7wikcRFZf2UDu9N1v2jD-67" value="&lt;font color=&quot;#ffffff&quot;&gt;&lt;span style=&quot;font-size: 15px;&quot;&gt;stop accelerate (as car keep speed that I told it&lt;/span&gt;&lt;/font&gt;&lt;div&gt;&lt;font color=&quot;#ffffff&quot;&gt;&lt;span style=&quot;font-size: 15px;&quot;&gt;during setting ACCS)&lt;/span&gt;&lt;/font&gt;&lt;/div&gt;" style="text;strokeColor=default;fillColor=none;align=left;verticalAlign=top;spacingLeft=4;spacingRight=4;overflow=hidden;rotatable=0;points=[[0,0.5,0,0,0],[1,0.5,0,0,0]];portConstraint=eastwest;whiteSpace=wrap;html=1;strokeWidth=3;" vertex="1" parent="7wikcRFZf2UDu9N1v2jD-64">
          <mxGeometry y="95" width="336" height="49" as="geometry" />
        </mxCell>
        <mxCell id="7wikcRFZf2UDu9N1v2jD-68" value="&lt;font style=&quot;font-size: 15px;&quot; color=&quot;#ffffff&quot;&gt;make braking with small value&lt;/font&gt;" style="text;strokeColor=default;fillColor=none;align=left;verticalAlign=top;spacingLeft=4;spacingRight=4;overflow=hidden;rotatable=0;points=[[0,0.5,0,0,0],[1,0.5,0,0,0]];portConstraint=eastwest;whiteSpace=wrap;html=1;strokeWidth=3;" vertex="1" parent="7wikcRFZf2UDu9N1v2jD-64">
          <mxGeometry y="144" width="336" height="26" as="geometry" />
        </mxCell>
        <mxCell id="7wikcRFZf2UDu9N1v2jD-69" value="Toggle yellow &amp; flash red led" style="swimlane;strokeWidth=3;strokeColor=#F19C99;startSize=36;" vertex="1" parent="uNYdHs1n68aAT5kjv6AT-13">
          <mxGeometry x="1968" y="588" width="336" height="211" as="geometry" />
        </mxCell>
        <mxCell id="7wikcRFZf2UDu9N1v2jD-70" value="&lt;font style=&quot;font-size: 15px;&quot; color=&quot;#ffffff&quot;&gt;Toggle yellow led&amp;nbsp;&lt;/font&gt;" style="text;strokeColor=default;fillColor=none;align=left;verticalAlign=top;spacingLeft=4;spacingRight=4;overflow=hidden;rotatable=0;points=[[0,0.5],[1,0.5]];portConstraint=eastwest;whiteSpace=wrap;html=1;strokeWidth=3;" vertex="1" parent="7wikcRFZf2UDu9N1v2jD-69">
          <mxGeometry y="43" width="336" height="26" as="geometry" />
        </mxCell>
        <mxCell id="7wikcRFZf2UDu9N1v2jD-71" value="&lt;font style=&quot;font-size: 15px;&quot; color=&quot;#ffffff&quot;&gt;flash red led&amp;nbsp; (as make toggle with very high frequency as this indicate to car in way to make accident)&lt;/font&gt;" style="text;strokeColor=default;fillColor=none;align=left;verticalAlign=top;spacingLeft=4;spacingRight=4;overflow=hidden;rotatable=0;points=[[0,0.5,0,0,0],[1,0.5,0,0,0]];portConstraint=eastwest;whiteSpace=wrap;html=1;strokeWidth=3;" vertex="1" parent="7wikcRFZf2UDu9N1v2jD-69">
          <mxGeometry y="69" width="336" height="63" as="geometry" />
        </mxCell>
        <mxCell id="7wikcRFZf2UDu9N1v2jD-84" style="edgeStyle=orthogonalEdgeStyle;rounded=0;orthogonalLoop=1;jettySize=auto;html=1;exitX=1;exitY=0.5;exitDx=0;exitDy=0;exitPerimeter=0;strokeWidth=4;strokeColor=#67AB9F;" edge="1" parent="7wikcRFZf2UDu9N1v2jD-69" source="7wikcRFZf2UDu9N1v2jD-72">
          <mxGeometry relative="1" as="geometry">
            <mxPoint x="468" y="-96" as="targetPoint" />
          </mxGeometry>
        </mxCell>
        <mxCell id="7wikcRFZf2UDu9N1v2jD-72" value="&lt;font color=&quot;#ffffff&quot;&gt;&lt;span style=&quot;font-size: 15px;&quot;&gt;stop accelerate (as car keep speed that I told it&lt;/span&gt;&lt;/font&gt;&lt;div&gt;&lt;font color=&quot;#ffffff&quot;&gt;&lt;span style=&quot;font-size: 15px;&quot;&gt;during setting ACCS)&lt;/span&gt;&lt;/font&gt;&lt;/div&gt;" style="text;strokeColor=default;fillColor=none;align=left;verticalAlign=top;spacingLeft=4;spacingRight=4;overflow=hidden;rotatable=0;points=[[0,0.5,0,0,0],[1,0.5,0,0,0]];portConstraint=eastwest;whiteSpace=wrap;html=1;strokeWidth=3;" vertex="1" parent="7wikcRFZf2UDu9N1v2jD-69">
          <mxGeometry y="133" width="336" height="50" as="geometry" />
        </mxCell>
        <mxCell id="7wikcRFZf2UDu9N1v2jD-73" value="&lt;font style=&quot;font-size: 15px;&quot; color=&quot;#ffffff&quot;&gt;make braking with small value&lt;/font&gt;" style="text;strokeColor=default;fillColor=none;align=left;verticalAlign=top;spacingLeft=4;spacingRight=4;overflow=hidden;rotatable=0;points=[[0,0.5,0,0,0],[1,0.5,0,0,0]];portConstraint=eastwest;whiteSpace=wrap;html=1;strokeWidth=3;" vertex="1" parent="7wikcRFZf2UDu9N1v2jD-69">
          <mxGeometry y="182" width="336" height="27" as="geometry" />
        </mxCell>
        <mxCell id="7wikcRFZf2UDu9N1v2jD-74" value="Toggle yellow &amp; flash red led" style="swimlane;strokeWidth=3;strokeColor=#F19C99;startSize=36;" vertex="1" parent="uNYdHs1n68aAT5kjv6AT-13">
          <mxGeometry x="1324" y="581" width="336" height="211" as="geometry" />
        </mxCell>
        <mxCell id="7wikcRFZf2UDu9N1v2jD-75" value="&lt;font style=&quot;font-size: 15px;&quot; color=&quot;#ffffff&quot;&gt;Toggle yellow led&amp;nbsp;&lt;/font&gt;" style="text;strokeColor=default;fillColor=none;align=left;verticalAlign=top;spacingLeft=4;spacingRight=4;overflow=hidden;rotatable=0;points=[[0,0.5],[1,0.5]];portConstraint=eastwest;whiteSpace=wrap;html=1;strokeWidth=3;" vertex="1" parent="7wikcRFZf2UDu9N1v2jD-74">
          <mxGeometry y="43" width="336" height="26" as="geometry" />
        </mxCell>
        <mxCell id="7wikcRFZf2UDu9N1v2jD-76" value="&lt;font style=&quot;font-size: 15px;&quot; color=&quot;#ffffff&quot;&gt;display message to show that car make crushing&lt;/font&gt;" style="text;strokeColor=default;fillColor=none;align=left;verticalAlign=top;spacingLeft=4;spacingRight=4;overflow=hidden;rotatable=0;points=[[0,0.5,0,0,0],[1,0.5,0,0,0]];portConstraint=eastwest;whiteSpace=wrap;html=1;strokeWidth=3;" vertex="1" parent="7wikcRFZf2UDu9N1v2jD-74">
          <mxGeometry y="69" width="336" height="39" as="geometry" />
        </mxCell>
        <mxCell id="7wikcRFZf2UDu9N1v2jD-77" value="&lt;font color=&quot;#ffffff&quot;&gt;&lt;span style=&quot;font-size: 15px;&quot;&gt;Flash relay to make sound&amp;nbsp;&lt;/span&gt;&lt;/font&gt;" style="text;strokeColor=default;fillColor=none;align=left;verticalAlign=top;spacingLeft=4;spacingRight=4;overflow=hidden;rotatable=0;points=[[0,0.5,0,0,0],[1,0.5,0,0,0]];portConstraint=eastwest;whiteSpace=wrap;html=1;strokeWidth=3;" vertex="1" parent="7wikcRFZf2UDu9N1v2jD-74">
          <mxGeometry y="108" width="336" height="36" as="geometry" />
        </mxCell>
        <mxCell id="7wikcRFZf2UDu9N1v2jD-78" value="&lt;font style=&quot;font-size: 15px;&quot; color=&quot;#ffffff&quot;&gt;Turn off all buttons&amp;nbsp;&lt;/font&gt;" style="text;strokeColor=default;fillColor=none;align=left;verticalAlign=top;spacingLeft=4;spacingRight=4;overflow=hidden;rotatable=0;points=[[0,0.5,0,0,0],[1,0.5,0,0,0]];portConstraint=eastwest;whiteSpace=wrap;html=1;strokeWidth=3;" vertex="1" parent="7wikcRFZf2UDu9N1v2jD-74">
          <mxGeometry y="144" width="336" height="27" as="geometry" />
        </mxCell>
        <mxCell id="7wikcRFZf2UDu9N1v2jD-81" style="edgeStyle=orthogonalEdgeStyle;rounded=0;orthogonalLoop=1;jettySize=auto;html=1;exitX=1;exitY=0.5;exitDx=0;exitDy=0;entryX=0.75;entryY=0;entryDx=0;entryDy=0;strokeWidth=4;strokeColor=#67AB9F;" edge="1" parent="uNYdHs1n68aAT5kjv6AT-13" source="7wikcRFZf2UDu9N1v2jD-56" target="7wikcRFZf2UDu9N1v2jD-64">
          <mxGeometry relative="1" as="geometry" />
        </mxCell>
        <mxCell id="7wikcRFZf2UDu9N1v2jD-85" style="edgeStyle=orthogonalEdgeStyle;rounded=0;orthogonalLoop=1;jettySize=auto;html=1;exitX=0;exitY=0.5;exitDx=0;exitDy=0;exitPerimeter=0;entryX=1;entryY=0.5;entryDx=0;entryDy=0;strokeWidth=4;strokeColor=#67AB9F;" edge="1" parent="uNYdHs1n68aAT5kjv6AT-13" source="7wikcRFZf2UDu9N1v2jD-71" target="7wikcRFZf2UDu9N1v2jD-74">
          <mxGeometry relative="1" as="geometry" />
        </mxCell>
        <mxCell id="7wikcRFZf2UDu9N1v2jD-86" value="&lt;b&gt;&lt;font style=&quot;font-size: 17px;&quot;&gt;8 &amp;gt; Distance &amp;gt;= 6&lt;/font&gt;&lt;/b&gt;&lt;span style=&quot;color: rgba(0, 0, 0, 0); font-family: monospace; font-size: 0px; text-align: start; text-wrap: nowrap;&quot;&gt;%3CmxGraphModel%3E%3Croot%3E%3CmxCell%20id%3D%220%22%2F%3E%3CmxCell%20id%3D%221%22%20parent%3D%220%22%2F%3E%3CmxCell%20id%3D%222%22%20value%3D%22%26lt%3Bb%26gt%3B%26lt%3Bfont%20style%3D%26quot%3Bfont-size%3A%2017px%3B%26quot%3B%26gt%3BACCS%20BTN%20Pressed%26lt%3B%2Ffont%26gt%3B%26lt%3B%2Fb%26gt%3B%22%20style%3D%22rounded%3D0%3BwhiteSpace%3Dwrap%3Bhtml%3D1%3B%22%20vertex%3D%221%22%20parent%3D%221%22%3E%3CmxGeometry%20x%3D%221392%22%20y%3D%22-24%22%20width%3D%22180%22%20height%3D%2265%22%20as%3D%22geometry%22%2F%3E%3C%2FmxCell%3E%3C%2Froot%3E%3C%2FmxGraphModel%3E&lt;/span&gt;&lt;span style=&quot;color: rgba(0, 0, 0, 0); font-family: monospace; font-size: 0px; text-align: start; text-wrap: nowrap;&quot;&gt;%3CmxGraphModel%3E%3Croot%3E%3CmxCell%20id%3D%220%22%2F%3E%3CmxCell%20id%3D%221%22%20parent%3D%220%22%2F%3E%3CmxCell%20id%3D%222%22%20value%3D%22%26lt%3Bb%26gt%3B%26lt%3Bfont%20style%3D%26quot%3Bfont-size%3A%2017px%3B%26quot%3B%26gt%3BACCS%20BTN%20Pressed%26lt%3B%2Ffont%26gt%3B%26lt%3B%2Fb%26gt%3B%22%20style%3D%22rounded%3D0%3BwhiteSpace%3Dwrap%3Bhtml%3D1%3B%22%20vertex%3D%221%22%20parent%3D%221%22%3E%3CmxGeometry%20x%3D%221392%22%20y%3D%22-24%22%20width%3D%22180%22%20height%3D%2265%22%20as%3D%22geometry%22%2F%3E%3C%2FmxCell%3E%3C%2Froot%3E%3C%2FmxGraphModel%3E&lt;/span&gt;" style="rounded=0;whiteSpace=wrap;html=1;" vertex="1" parent="uNYdHs1n68aAT5kjv6AT-13">
          <mxGeometry x="1560" y="55" width="180" height="65" as="geometry" />
        </mxCell>
        <mxCell id="7wikcRFZf2UDu9N1v2jD-87" value="&lt;b&gt;&lt;font style=&quot;font-size: 17px;&quot;&gt;Distance &amp;gt;= 8&lt;/font&gt;&lt;/b&gt;&lt;span style=&quot;color: rgba(0, 0, 0, 0); font-family: monospace; font-size: 0px; text-align: start; text-wrap: nowrap;&quot;&gt;%3CmxGraphModel%3E%3Croot%3E%3CmxCell%20id%3D%220%22%2F%3E%3CmxCell%20id%3D%221%22%20parent%3D%220%22%2F%3E%3CmxCell%20id%3D%222%22%20value%3D%22%26lt%3Bb%26gt%3B%26lt%3Bfont%20style%3D%26quot%3Bfont-size%3A%2017px%3B%26quot%3B%26gt%3BACCS%20BTN%20Pressed%26lt%3B%2Ffont%26gt%3B%26lt%3B%2Fb%26gt%3B%22%20style%3D%22rounded%3D0%3BwhiteSpace%3Dwrap%3Bhtml%3D1%3B%22%20vertex%3D%221%22%20parent%3D%221%22%3E%3CmxGeometry%20x%3D%221392%22%20y%3D%22-24%22%20width%3D%22180%22%20height%3D%2265%22%20as%3D%22geometry%22%2F%3E%3C%2FmxCell%3E%3C%2Froot%3E%3C%2FmxGraphModel%3E&lt;/span&gt;&lt;span style=&quot;color: rgba(0, 0, 0, 0); font-family: monospace; font-size: 0px; text-align: start; text-wrap: nowrap;&quot;&gt;%3CmxGraphModel%3E%3Croot%3E%3CmxCell%20id%3D%220%22%2F%3E%3CmxCell%20id%3D%221%22%20parent%3D%220%22%2F%3E%3CmxCell%20id%3D%222%22%20value%3D%22%26lt%3Bb%26gt%3B%26lt%3Bfont%20style%3D%26quot%3Bfont-size%3A%2017px%3B%26quot%3B%26gt%3BACCS%20BTN%20Pressed%26lt%3B%2Ffont%26gt%3B%26lt%3B%2Fb%26gt%3B%22%20style%3D%22rounded%3D0%3BwhiteSpace%3Dwrap%3Bhtml%3D1%3B%22%20vertex%3D%221%22%20parent%3D%221%22%3E%3CmxGeometry%20x%3D%221392%22%20y%3D%22-24%22%20width%3D%22180%22%20height%3D%2265%22%20as%3D%22geometry%22%2F%3E%3C%2FmxCell%3E%3C%2Froot%3E%3C%2FmxGraphModel%3E&lt;/span&gt;" style="rounded=0;whiteSpace=wrap;html=1;" vertex="1" parent="uNYdHs1n68aAT5kjv6AT-13">
          <mxGeometry x="1572" y="180" width="180" height="65" as="geometry" />
        </mxCell>
        <mxCell id="7wikcRFZf2UDu9N1v2jD-88" value="&lt;b&gt;&lt;font style=&quot;font-size: 17px;&quot;&gt;6 &amp;gt; Distance &amp;gt; 4&lt;/font&gt;&lt;/b&gt;&lt;span style=&quot;color: rgba(0, 0, 0, 0); font-family: monospace; font-size: 0px; text-align: start; text-wrap: nowrap;&quot;&gt;%3CmxGraphModel%3E%3Croot%3E%3CmxCell%20id%3D%220%22%2F%3E%3CmxCell%20id%3D%221%22%20parent%3D%220%22%2F%3E%3CmxCell%20id%3D%222%22%20value%3D%22%26lt%3Bb%26gt%3B%26lt%3Bfont%20style%3D%26quot%3Bfont-size%3A%2017px%3B%26quot%3B%26gt%3BACCS%20BTN%20Pressed%26lt%3B%2Ffont%26gt%3B%26lt%3B%2Fb%26gt%3B%22%20style%3D%22rounded%3D0%3BwhiteSpace%3Dwrap%3Bhtml%3D1%3B%22%20vertex%3D%221%22%20parent%3D%221%22%3E%3CmxGeometry%20x%3D%221392%22%20y%3D%22-24%22%20width%3D%22180%22%20height%3D%2265%22%20as%3D%22geometry%22%2F%3E%3C%2FmxCell%3E%3C%2Froot%3E%3C%2FmxGraphModel%3E&lt;/span&gt;&lt;span style=&quot;color: rgba(0, 0, 0, 0); font-family: monospace; font-size: 0px; text-align: start; text-wrap: nowrap;&quot;&gt;%3CmxGraphModel%3E%3Croot%3E%3CmxCell%20id%3D%220%22%2F%3E%3CmxCell%20id%3D%221%22%20parent%3D%220%22%2F%3E%3CmxCell%20id%3D%222%22%20value%3D%22%26lt%3Bb%26gt%3B%26lt%3Bfont%20style%3D%26quot%3Bfont-size%3A%2017px%3B%26quot%3B%26gt%3BACCS%20BTN%20Pressed%26lt%3B%2Ffont%26gt%3B%26lt%3B%2Fb%26gt%3B%22%20style%3D%22rounded%3D0%3BwhiteSpace%3Dwrap%3Bhtml%3D1%3B%22%20vertex%3D%221%22%20parent%3D%221%22%3E%3CmxGeometry%20x%3D%221392%22%20y%3D%22-24%22%20width%3D%22180%22%20height%3D%2265%22%20as%3D%22geometry%22%2F%3E%3C%2FmxCell%3E%3C%2Froot%3E%3C%2FmxGraphModel%3E&lt;/span&gt;" style="rounded=0;whiteSpace=wrap;html=1;" vertex="1" parent="uNYdHs1n68aAT5kjv6AT-13">
          <mxGeometry x="2339" y="148" width="180" height="65" as="geometry" />
        </mxCell>
        <mxCell id="7wikcRFZf2UDu9N1v2jD-89" value="&lt;b&gt;&lt;font style=&quot;font-size: 17px;&quot;&gt;Distance &amp;gt;= 6&lt;/font&gt;&lt;/b&gt;&lt;span style=&quot;color: rgba(0, 0, 0, 0); font-family: monospace; font-size: 0px; text-align: start; text-wrap: nowrap;&quot;&gt;%3CmxGraphModel%3E%3Croot%3E%3CmxCell%20id%3D%220%22%2F%3E%3CmxCell%20id%3D%221%22%20parent%3D%220%22%2F%3E%3CmxCell%20id%3D%222%22%20value%3D%22%26lt%3Bb%26gt%3B%26lt%3Bfont%20style%3D%26quot%3Bfont-size%3A%2017px%3B%26quot%3B%26gt%3BACCS%20BTN%20Pressed%26lt%3B%2Ffont%26gt%3B%26lt%3B%2Fb%26gt%3B%22%20style%3D%22rounded%3D0%3BwhiteSpace%3Dwrap%3Bhtml%3D1%3B%22%20vertex%3D%221%22%20parent%3D%221%22%3E%3CmxGeometry%20x%3D%221392%22%20y%3D%22-24%22%20width%3D%22180%22%20height%3D%2265%22%20as%3D%22geometry%22%2F%3E%3C%2FmxCell%3E%3C%2Froot%3E%3C%2FmxGraphModel%3E&lt;/span&gt;&lt;span style=&quot;color: rgba(0, 0, 0, 0); font-family: monospace; font-size: 0px; text-align: start; text-wrap: nowrap;&quot;&gt;%3CmxGraphModel%3E%3Croot%3E%3CmxCell%20id%3D%220%22%2F%3E%3CmxCell%20id%3D%221%22%20parent%3D%220%22%2F%3E%3CmxCell%20id%3D%222%22%20value%3D%22%26lt%3Bb%26gt%3B%26lt%3Bfont%20style%3D%26quot%3Bfont-size%3A%2017px%3B%26quot%3B%26gt%3BACCS%20BTN%20Pressed%26lt%3B%2Ffont%26gt%3B%26lt%3B%2Fb%26gt%3B%22%20style%3D%22rounded%3D0%3BwhiteSpace%3Dwrap%3Bhtml%3D1%3B%22%20vertex%3D%221%22%20parent%3D%221%22%3E%3CmxGeometry%20x%3D%221392%22%20y%3D%22-24%22%20width%3D%22180%22%20height%3D%2265%22%20as%3D%22geometry%22%2F%3E%3C%2FmxCell%3E%3C%2Froot%3E%3C%2FmxGraphModel%3&lt;/span&gt;" style="rounded=0;whiteSpace=wrap;html=1;" vertex="1" parent="uNYdHs1n68aAT5kjv6AT-13">
          <mxGeometry x="2124" y="213" width="180" height="65" as="geometry" />
        </mxCell>
        <mxCell id="7wikcRFZf2UDu9N1v2jD-90" value="&lt;b&gt;&lt;font style=&quot;font-size: 17px;&quot;&gt;4 &amp;gt; Distance &amp;gt;= 2&lt;/font&gt;&lt;/b&gt;&lt;span style=&quot;color: rgba(0, 0, 0, 0); font-family: monospace; font-size: 0px; text-align: start; text-wrap: nowrap;&quot;&gt;%3CmxGraphModel%3E%3Croot%3E%3CmxCell%20id%3D%220%22%2F%3E%3CmxCell%20id%3D%221%22%20parent%3D%220%22%2F%3E%3CmxCell%20id%3D%222%22%20value%3D%22%26lt%3Bb%26gt%3B%26lt%3Bfont%20style%3D%26quot%3Bfont-size%3A%2017px%3B%26quot%3B%26gt%3BACCS%20BTN%20Pressed%26lt%3B%2Ffont%26gt%3B%26lt%3B%2Fb%26gt%3B%22%20style%3D%22rounded%3D0%3BwhiteSpace%3Dwrap%3Bhtml%3D1%3B%22%20vertex%3D%221%22%20parent%3D%221%22%3E%3CmxGeometry%20x%3D%221392%22%20y%3D%22-24%22%20width%3D%22180%22%20height%3D%2265%22%20as%3D%22geometry%22%2F%3E%3C%2FmxCell%3E%3C%2Froot%3E%3C%2FmxGraphModel%3E&lt;/span&gt;&lt;span style=&quot;color: rgba(0, 0, 0, 0); font-family: monospace; font-size: 0px; text-align: start; text-wrap: nowrap;&quot;&gt;%3CmxGraphModel%3E%3Croot%3E%3CmxCell%20id%3D%220%22%2F%3E%3CmxCell%20id%3D%221%22%20parent%3D%220%22%2F%3E%3CmxCell%20id%3D%222%22%20value%3D%22%26lt%3Bb%26gt%3B%26lt%3Bfont%20style%3D%26quot%3Bfont-size%3A%2017px%3B%26quot%3B%26gt%3BACCS%20BTN%20Pressed%26lt%3B%2Ffont%26gt%3B%26lt%3B%2Fb%26gt%3B%22%20style%3D%22rounded%3D0%3BwhiteSpace%3Dwrap%3Bhtml%3D1%3B%22%20vertex%3D%221%22%20parent%3D%221%22%3E%3CmxGeometry%20x%3D%221392%22%20y%3D%22-24%22%20width%3D%22180%22%20height%3D%2265%22%20as%3D%22geometry%22%2F%3E%3C%2FmxCell%3E%3C%2Froot%3E%3C%2FmxGraphModel%3E&lt;/span&gt;" style="rounded=0;whiteSpace=wrap;html=1;" vertex="1" parent="uNYdHs1n68aAT5kjv6AT-13">
          <mxGeometry x="2220" y="516" width="180" height="65" as="geometry" />
        </mxCell>
        <mxCell id="7wikcRFZf2UDu9N1v2jD-91" value="&lt;b&gt;&lt;font style=&quot;font-size: 17px;&quot;&gt;Distance &amp;gt;= 4&lt;/font&gt;&lt;/b&gt;&lt;span style=&quot;color: rgba(0, 0, 0, 0); font-family: monospace; font-size: 0px; text-align: start; text-wrap: nowrap;&quot;&gt;%3CmxGraphModel%3E%3Croot%3E%3CmxCell%20id%3D%220%22%2F%3E%3CmxCell%20id%3D%221%22%20parent%3D%220%22%2F%3E%3CmxCell%20id%3D%222%22%20value%3D%22%26lt%3Bb%26gt%3B%26lt%3Bfont%20style%3D%26quot%3Bfont-size%3A%2017px%3B%26quot%3B%26gt%3BACCS%20BTN%20Pressed%26lt%3B%2Ffont%26gt%3B%26lt%3B%2Fb%26gt%3B%22%20style%3D%22rounded%3D0%3BwhiteSpace%3Dwrap%3Bhtml%3D1%3B%22%20vertex%3D%221%22%20parent%3D%221%22%3E%3CmxGeometry%20x%3D%221392%22%20y%3D%22-24%22%20width%3D%22180%22%20height%3D%2265%22%20as%3D%22geometry%22%2F%3E%3C%2FmxCell%3E%3C%2Froot%3E%3C%2FmxGraphModel%3E&lt;/span&gt;&lt;span style=&quot;color: rgba(0, 0, 0, 0); font-family: monospace; font-size: 0px; text-align: start; text-wrap: nowrap;&quot;&gt;%3CmxGraphModel%3E%3Croot%3E%3CmxCell%20id%3D%220%22%2F%3E%3CmxCell%20id%3D%221%22%20parent%3D%220%22%2F%3E%3CmxCell%20id%3D%222%22%20value%3D%22%26lt%3Bb%26gt%3B%26lt%3Bfont%20style%3D%26quot%3Bfont-size%3A%2017px%3B%26quot%3B%26gt%3BACCS%20BTN%20Pressed%26lt%3B%2Ffont%26gt%3B%26lt%3B%2Fb%26gt%3B%22%20style%3D%22rounded%3D0%3BwhiteSpace%3Dwrap%3Bhtml%3D1%3B%22%20vertex%3D%221%22%20parent%3D%221%22%3E%3CmxGeometry%20x%3D%221392%22%20y%3D%22-24%22%20width%3D%22180%22%20height%3D%2265%22%20as%3D%22geometry%22%2F%3E%3C%2FmxCell%3E%3C%2Froot%3E%3C%2FmxGraphModel%3&lt;/span&gt;" style="rounded=0;whiteSpace=wrap;html=1;" vertex="1" parent="uNYdHs1n68aAT5kjv6AT-13">
          <mxGeometry x="2351" y="653" width="180" height="65" as="geometry" />
        </mxCell>
        <mxCell id="7wikcRFZf2UDu9N1v2jD-92" value="&lt;b&gt;&lt;font style=&quot;font-size: 17px;&quot;&gt;Distance &amp;lt; 2&lt;/font&gt;&lt;/b&gt;&lt;span style=&quot;color: rgba(0, 0, 0, 0); font-family: monospace; font-size: 0px; text-align: start; text-wrap: nowrap;&quot;&gt;%3CmxGraphModel%3E%3Croot%3E%3CmxCell%20id%3D%220%22%2F%3E%3CmxCell%20id%3D%221%22%20parent%3D%220%22%2F%3E%3CmxCell%20id%3D%222%22%20value%3D%22%26lt%3Bb%26gt%3B%26lt%3Bfont%20style%3D%26quot%3Bfont-size%3A%2017px%3B%26quot%3B%26gt%3BACCS%20BTN%20Pressed%26lt%3B%2Ffont%26gt%3B%26lt%3B%2Fb%26gt%3B%22%20style%3D%22rounded%3D0%3BwhiteSpace%3Dwrap%3Bhtml%3D1%3B%22%20vertex%3D%221%22%20parent%3D%221%22%3E%3CmxGeometry%20x%3D%221392%22%20y%3D%22-24%22%20width%3D%22180%22%20height%3D%2265%22%20as%3D%22geometry%22%2F%3E%3C%2FmxCell%3E%3C%2Froot%3E%3C%2FmxGraphModel%3E&lt;/span&gt;&lt;span style=&quot;color: rgba(0, 0, 0, 0); font-family: monospace; font-size: 0px; text-align: start; text-wrap: nowrap;&quot;&gt;%3CmxGraphModel%3E%3Croot%3E%3CmxCell%20id%3D%220%22%2F%3E%3CmxCell%20id%3D%221%22%20parent%3D%220%22%2F%3E%3CmxCell%20id%3D%222%22%20value%3D%22%26lt%3Bb%26gt%3B%26lt%3Bfont%20style%3D%26quot%3Bfont-size%3A%2017px%3B%26quot%3B%26gt%3BACCS%20BTN%20Pressed%26lt%3B%2Ffont%26gt%3B%26lt%3B%2Fb%26gt%3B%22%20style%3D%22rounded%3D0%3BwhiteSpace%3Dwrap%3Bhtml%3D1%3B%22%20vertex%3D%221%22%20parent%3D%221%22%3E%3CmxGeometry%20x%3D%221392%22%20y%3D%22-24%22%20width%3D%22180%22%20height%3D%2265%22%20as%3D%22geometry%22%2F%3E%3C%2FmxCell%3E%3C%2Froot%3E%3C%2FmxGraphModel%3&lt;/span&gt;" style="rounded=0;whiteSpace=wrap;html=1;" vertex="1" parent="uNYdHs1n68aAT5kjv6AT-13">
          <mxGeometry x="1716" y="636" width="180" height="65" as="geometry" />
        </mxCell>
        <mxCell id="FsSQR3Tcq3Qhwz0BQt5I-1" style="edgeStyle=orthogonalEdgeStyle;rounded=0;orthogonalLoop=1;jettySize=auto;html=1;exitX=1;exitY=0.5;exitDx=0;exitDy=0;entryX=0;entryY=0.25;entryDx=0;entryDy=0;strokeWidth=6;strokeColor=#7EA6E0;" parent="WIyWlLk6GJQsqaUBKTNV-1" source="QeEDxV_lBqNEmLMarwRb-10" target="uNYdHs1n68aAT5kjv6AT-13" edge="1">
          <mxGeometry relative="1" as="geometry" />
        </mxCell>
        <mxCell id="7wikcRFZf2UDu9N1v2jD-15" value="&lt;b&gt;&lt;font style=&quot;font-size: 17px;&quot;&gt;Gearbox BTN pressed&lt;/font&gt;&lt;/b&gt;" style="rounded=0;whiteSpace=wrap;html=1;" vertex="1" parent="WIyWlLk6GJQsqaUBKTNV-1">
          <mxGeometry x="312" y="91" width="180" height="65" as="geometry" />
        </mxCell>
        <mxCell id="7wikcRFZf2UDu9N1v2jD-95" style="edgeStyle=orthogonalEdgeStyle;rounded=0;orthogonalLoop=1;jettySize=auto;html=1;exitX=0;exitY=0.5;exitDx=0;exitDy=0;exitPerimeter=0;entryX=0;entryY=0.5;entryDx=0;entryDy=0;strokeWidth=3;strokeColor=#9AC7BF;" edge="1" parent="WIyWlLk6GJQsqaUBKTNV-1" source="7wikcRFZf2UDu9N1v2jD-76" target="QeEDxV_lBqNEmLMarwRb-4">
          <mxGeometry relative="1" as="geometry">
            <mxPoint x="1848" y="852" as="targetPoint" />
          </mxGeometry>
        </mxCell>
        <mxCell id="7wikcRFZf2UDu9N1v2jD-103" style="edgeStyle=orthogonalEdgeStyle;rounded=0;orthogonalLoop=1;jettySize=auto;html=1;exitX=0.5;exitY=0;exitDx=0;exitDy=0;strokeWidth=6;strokeColor=#7EA6E0;" edge="1" parent="WIyWlLk6GJQsqaUBKTNV-1" source="7wikcRFZf2UDu9N1v2jD-96">
          <mxGeometry relative="1" as="geometry">
            <mxPoint x="84" y="372" as="targetPoint" />
          </mxGeometry>
        </mxCell>
        <mxCell id="7wikcRFZf2UDu9N1v2jD-96" value="Reverse(R)" style="swimlane;startSize=72;fontSize=31;strokeWidth=4;strokeColor=#FFCCFF;" vertex="1" parent="WIyWlLk6GJQsqaUBKTNV-1">
          <mxGeometry x="-756" y="984" width="1190" height="972" as="geometry" />
        </mxCell>
        <mxCell id="7wikcRFZf2UDu9N1v2jD-105" value="Init_state_in_R" style="swimlane;strokeWidth=3;strokeColor=#F19C99;" vertex="1" parent="7wikcRFZf2UDu9N1v2jD-96">
          <mxGeometry x="696" y="156" width="276" height="365" as="geometry">
            <mxRectangle x="60" y="60" width="120" height="24" as="alternateBounds" />
          </mxGeometry>
        </mxCell>
        <mxCell id="7wikcRFZf2UDu9N1v2jD-106" value="&lt;font style=&quot;font-size: 15px;&quot; color=&quot;#ffffff&quot;&gt;Gear :R&lt;/font&gt;" style="text;strokeColor=default;fillColor=none;align=left;verticalAlign=top;spacingLeft=4;spacingRight=4;overflow=hidden;rotatable=0;points=[[0,0.5],[1,0.5]];portConstraint=eastwest;whiteSpace=wrap;html=1;strokeWidth=2;perimeterSpacing=13;" vertex="1" parent="7wikcRFZf2UDu9N1v2jD-105">
          <mxGeometry y="27" width="276" height="26" as="geometry" />
        </mxCell>
        <mxCell id="7wikcRFZf2UDu9N1v2jD-107" value="&lt;font style=&quot;font-size: 15px;&quot; color=&quot;#ffffff&quot;&gt;ACCS:OFF&lt;/font&gt;" style="text;strokeColor=default;fillColor=none;align=left;verticalAlign=top;spacingLeft=4;spacingRight=4;overflow=hidden;rotatable=0;points=[[0,0.5,0,0,0],[1,0.5,0,0,0]];portConstraint=eastwest;whiteSpace=wrap;html=1;strokeWidth=3;" vertex="1" parent="7wikcRFZf2UDu9N1v2jD-105">
          <mxGeometry y="53" width="276" height="26" as="geometry" />
        </mxCell>
        <object label="&lt;font style=&quot;font-size: 15px;&quot;&gt;LCD_init&lt;/font&gt;" id="7wikcRFZf2UDu9N1v2jD-108">
          <mxCell style="swimlane;fontStyle=0;childLayout=stackLayout;horizontal=1;startSize=36;horizontalStack=0;resizeParent=1;resizeParentMax=0;resizeLast=0;collapsible=1;marginBottom=0;whiteSpace=wrap;html=1;fontFamily=Verdana;fontColor=#FFFFFF;rounded=0;fillColor=#000000;align=left;strokeColor=#67AB9F;strokeWidth=4;" vertex="1" collapsed="1" parent="7wikcRFZf2UDu9N1v2jD-105">
            <mxGeometry y="180" width="276" height="36" as="geometry">
              <mxRectangle y="180" width="276" height="140" as="alternateBounds" />
            </mxGeometry>
          </mxCell>
        </object>
        <mxCell id="7wikcRFZf2UDu9N1v2jD-109" value="&lt;font style=&quot;font-size: 15px;&quot; color=&quot;#ffffff&quot;&gt;Gear :R&lt;/font&gt;" style="text;strokeColor=default;fillColor=none;align=left;verticalAlign=top;spacingLeft=4;spacingRight=4;overflow=hidden;rotatable=0;points=[[0,0.5],[1,0.5]];portConstraint=eastwest;whiteSpace=wrap;html=1;strokeWidth=2;" vertex="1" parent="7wikcRFZf2UDu9N1v2jD-108">
          <mxGeometry y="36" width="276" height="26" as="geometry" />
        </mxCell>
        <mxCell id="7wikcRFZf2UDu9N1v2jD-110" value="&lt;font color=&quot;#ffffff&quot;&gt;&lt;span style=&quot;font-size: 15px;&quot;&gt;Assistive Cruise control (On,Off):off&lt;/span&gt;&lt;/font&gt;" style="text;strokeColor=default;fillColor=none;align=left;verticalAlign=top;spacingLeft=4;spacingRight=4;overflow=hidden;rotatable=0;points=[[0,0.5],[1,0.5]];portConstraint=eastwest;whiteSpace=wrap;html=1;strokeWidth=3;" vertex="1" parent="7wikcRFZf2UDu9N1v2jD-108">
          <mxGeometry y="62" width="276" height="26" as="geometry" />
        </mxCell>
        <mxCell id="7wikcRFZf2UDu9N1v2jD-111" value="&lt;font style=&quot;font-size: 15px;&quot; color=&quot;#ffffff&quot;&gt;No need to display distance&lt;/font&gt;" style="text;strokeColor=default;fillColor=none;align=left;verticalAlign=top;spacingLeft=4;spacingRight=4;overflow=hidden;rotatable=0;points=[[0,0.5],[1,0.5]];portConstraint=eastwest;whiteSpace=wrap;html=1;strokeWidth=3;" vertex="1" parent="7wikcRFZf2UDu9N1v2jD-108">
          <mxGeometry y="88" width="276" height="26" as="geometry" />
        </mxCell>
        <mxCell id="7wikcRFZf2UDu9N1v2jD-112" value="&lt;font style=&quot;font-size: 15px;&quot; color=&quot;#ffffff&quot;&gt;Display Speed&lt;/font&gt;" style="text;strokeColor=default;fillColor=none;align=left;verticalAlign=top;spacingLeft=4;spacingRight=4;overflow=hidden;rotatable=0;points=[[0,0.5],[1,0.5]];portConstraint=eastwest;whiteSpace=wrap;html=1;strokeWidth=3;" vertex="1" parent="7wikcRFZf2UDu9N1v2jD-108">
          <mxGeometry y="114" width="276" height="26" as="geometry" />
        </mxCell>
        <mxCell id="7wikcRFZf2UDu9N1v2jD-113" value="&lt;font style=&quot;font-size: 15px;&quot; color=&quot;#ffffff&quot;&gt;Dicrease_speed until reach zero&lt;/font&gt;" style="text;strokeColor=default;fillColor=none;align=left;verticalAlign=top;spacingLeft=4;spacingRight=4;overflow=hidden;rotatable=0;points=[[0,0.5,0,0,0],[1,0.5,0,0,0]];portConstraint=eastwest;whiteSpace=wrap;html=1;strokeWidth=3;" vertex="1" parent="7wikcRFZf2UDu9N1v2jD-105">
          <mxGeometry y="79" width="276" height="26" as="geometry" />
        </mxCell>
        <mxCell id="7wikcRFZf2UDu9N1v2jD-114" value="&lt;font style=&quot;font-size: 15px;&quot; color=&quot;#ffffff&quot;&gt;Make blue led off&lt;/font&gt;" style="text;strokeColor=default;fillColor=none;align=left;verticalAlign=top;spacingLeft=4;spacingRight=4;overflow=hidden;rotatable=0;points=[[0,0.5,0,0,0],[1,0.5,0,0,0]];portConstraint=eastwest;whiteSpace=wrap;html=1;strokeWidth=3;" vertex="1" parent="7wikcRFZf2UDu9N1v2jD-105">
          <mxGeometry y="105" width="276" height="26" as="geometry" />
        </mxCell>
        <mxCell id="7wikcRFZf2UDu9N1v2jD-115" value="&lt;font style=&quot;font-size: 15px;&quot; color=&quot;#ffffff&quot;&gt;Make Red led off&lt;/font&gt;" style="text;strokeColor=default;fillColor=none;align=left;verticalAlign=top;spacingLeft=4;spacingRight=4;overflow=hidden;rotatable=0;points=[[0,0.5,0,0,0],[1,0.5,0,0,0]];portConstraint=eastwest;whiteSpace=wrap;html=1;strokeWidth=3;" vertex="1" parent="7wikcRFZf2UDu9N1v2jD-105">
          <mxGeometry y="131" width="276" height="26" as="geometry" />
        </mxCell>
        <mxCell id="7wikcRFZf2UDu9N1v2jD-117" value="Accelerate" style="swimlane;strokeWidth=3;strokeColor=#F19C99;startSize=22;" vertex="1" parent="7wikcRFZf2UDu9N1v2jD-96">
          <mxGeometry x="696" y="751" width="249" height="94" as="geometry" />
        </mxCell>
        <mxCell id="7wikcRFZf2UDu9N1v2jD-118" value="&lt;font style=&quot;font-size: 15px;&quot; color=&quot;#ffffff&quot;&gt;Increase Speed&lt;/font&gt;" style="text;strokeColor=default;fillColor=none;align=left;verticalAlign=top;spacingLeft=4;spacingRight=4;overflow=hidden;rotatable=0;points=[[0,0.5],[1,0.5]];portConstraint=eastwest;whiteSpace=wrap;html=1;strokeWidth=3;" vertex="1" parent="7wikcRFZf2UDu9N1v2jD-117">
          <mxGeometry y="27" width="240" height="26" as="geometry" />
        </mxCell>
        <mxCell id="7wikcRFZf2UDu9N1v2jD-119" value="&lt;font style=&quot;font-size: 15px;&quot; color=&quot;#ffffff&quot;&gt;Make Blue led on&amp;nbsp;&lt;/font&gt;" style="text;strokeColor=default;fillColor=none;align=left;verticalAlign=top;spacingLeft=4;spacingRight=4;overflow=hidden;rotatable=0;points=[[0,0.5,0,0,0],[1,0.5,0,0,0]];portConstraint=eastwest;whiteSpace=wrap;html=1;strokeWidth=3;" vertex="1" parent="7wikcRFZf2UDu9N1v2jD-117">
          <mxGeometry y="53" width="240" height="26" as="geometry" />
        </mxCell>
        <mxCell id="7wikcRFZf2UDu9N1v2jD-121" style="edgeStyle=orthogonalEdgeStyle;rounded=0;orthogonalLoop=1;jettySize=auto;html=1;exitX=0.25;exitY=1;exitDx=0;exitDy=0;entryX=0.25;entryY=0;entryDx=0;entryDy=0;strokeWidth=3;strokeColor=#9AC7BF;" edge="1" target="7wikcRFZf2UDu9N1v2jD-117" parent="7wikcRFZf2UDu9N1v2jD-96">
          <mxGeometry relative="1" as="geometry">
            <mxPoint x="746.25" y="516" as="sourcePoint" />
          </mxGeometry>
        </mxCell>
        <mxCell id="7wikcRFZf2UDu9N1v2jD-122" style="edgeStyle=orthogonalEdgeStyle;rounded=0;orthogonalLoop=1;jettySize=auto;html=1;exitX=0.75;exitY=0;exitDx=0;exitDy=0;entryX=0.75;entryY=1;entryDx=0;entryDy=0;strokeWidth=3;strokeColor=#9AC7BF;" edge="1" source="7wikcRFZf2UDu9N1v2jD-117" parent="7wikcRFZf2UDu9N1v2jD-96">
          <mxGeometry relative="1" as="geometry">
            <mxPoint x="870.7500000000005" y="516" as="targetPoint" />
          </mxGeometry>
        </mxCell>
        <mxCell id="7wikcRFZf2UDu9N1v2jD-123" value="&lt;b&gt;&lt;font style=&quot;font-size: 17px;&quot;&gt;Accelerate BTN released&lt;/font&gt;&lt;/b&gt;" style="rounded=0;whiteSpace=wrap;html=1;" vertex="1" parent="7wikcRFZf2UDu9N1v2jD-96">
          <mxGeometry x="840" y="631" width="180" height="65" as="geometry" />
        </mxCell>
        <mxCell id="7wikcRFZf2UDu9N1v2jD-120" value="&lt;b&gt;&lt;font style=&quot;font-size: 17px;&quot;&gt;Accelerate BTN pressed&lt;/font&gt;&lt;/b&gt;" style="rounded=0;whiteSpace=wrap;html=1;" vertex="1" parent="7wikcRFZf2UDu9N1v2jD-96">
          <mxGeometry x="624" y="586" width="180" height="65" as="geometry" />
        </mxCell>
        <mxCell id="7wikcRFZf2UDu9N1v2jD-134" value="Braking" style="swimlane;strokeWidth=3;strokeColor=#F19C99;startSize=26;" vertex="1" parent="7wikcRFZf2UDu9N1v2jD-96">
          <mxGeometry x="96" y="557" width="249" height="94" as="geometry" />
        </mxCell>
        <mxCell id="7wikcRFZf2UDu9N1v2jD-135" value="&lt;font style=&quot;font-size: 15px;&quot; color=&quot;#ffffff&quot;&gt;Decrease Speed&lt;/font&gt;" style="text;strokeColor=default;fillColor=none;align=left;verticalAlign=top;spacingLeft=4;spacingRight=4;overflow=hidden;rotatable=0;points=[[0,0.5],[1,0.5]];portConstraint=eastwest;whiteSpace=wrap;html=1;strokeWidth=3;" vertex="1" parent="7wikcRFZf2UDu9N1v2jD-134">
          <mxGeometry y="27" width="240" height="26" as="geometry" />
        </mxCell>
        <mxCell id="7wikcRFZf2UDu9N1v2jD-136" value="&lt;font style=&quot;font-size: 15px;&quot; color=&quot;#ffffff&quot;&gt;Make Red led on&amp;nbsp;&lt;/font&gt;" style="text;strokeColor=default;fillColor=none;align=left;verticalAlign=top;spacingLeft=4;spacingRight=4;overflow=hidden;rotatable=0;points=[[0,0.5,0,0,0],[1,0.5,0,0,0]];portConstraint=eastwest;whiteSpace=wrap;html=1;strokeWidth=3;" vertex="1" parent="7wikcRFZf2UDu9N1v2jD-134">
          <mxGeometry y="53" width="240" height="26" as="geometry" />
        </mxCell>
        <mxCell id="7wikcRFZf2UDu9N1v2jD-139" style="edgeStyle=orthogonalEdgeStyle;rounded=0;orthogonalLoop=1;jettySize=auto;html=1;exitX=0;exitY=0.5;exitDx=0;exitDy=0;exitPerimeter=0;entryX=0.171;entryY=-0.018;entryDx=0;entryDy=0;entryPerimeter=0;strokeWidth=3;strokeColor=#9AC7BF;" edge="1" parent="7wikcRFZf2UDu9N1v2jD-96" source="7wikcRFZf2UDu9N1v2jD-113" target="7wikcRFZf2UDu9N1v2jD-134">
          <mxGeometry relative="1" as="geometry" />
        </mxCell>
        <mxCell id="7wikcRFZf2UDu9N1v2jD-140" style="edgeStyle=orthogonalEdgeStyle;rounded=0;orthogonalLoop=1;jettySize=auto;html=1;exitX=0.75;exitY=0;exitDx=0;exitDy=0;entryX=-0.006;entryY=0.86;entryDx=0;entryDy=0;entryPerimeter=0;strokeWidth=3;strokeColor=#9AC7BF;" edge="1" parent="7wikcRFZf2UDu9N1v2jD-96" source="7wikcRFZf2UDu9N1v2jD-134" target="7wikcRFZf2UDu9N1v2jD-115">
          <mxGeometry relative="1" as="geometry" />
        </mxCell>
        <mxCell id="7wikcRFZf2UDu9N1v2jD-137" value="&lt;b&gt;&lt;font style=&quot;font-size: 17px;&quot;&gt;Braking BTN released&lt;/font&gt;&lt;/b&gt;" style="rounded=0;whiteSpace=wrap;html=1;" vertex="1" parent="7wikcRFZf2UDu9N1v2jD-96">
          <mxGeometry x="240" y="403" width="180" height="65" as="geometry" />
        </mxCell>
        <mxCell id="7wikcRFZf2UDu9N1v2jD-138" value="&lt;b&gt;&lt;font style=&quot;font-size: 17px;&quot;&gt;Braking BTN pressed&lt;/font&gt;&lt;/b&gt;" style="rounded=0;whiteSpace=wrap;html=1;" vertex="1" parent="7wikcRFZf2UDu9N1v2jD-96">
          <mxGeometry x="48" y="403" width="180" height="65" as="geometry" />
        </mxCell>
        <mxCell id="7wikcRFZf2UDu9N1v2jD-102" value="&lt;b&gt;&lt;font style=&quot;font-size: 17px;&quot;&gt;Gearbox BTN pressed&lt;/font&gt;&lt;/b&gt;&lt;div&gt;&lt;b&gt;&lt;font style=&quot;font-size: 17px;&quot;&gt;&amp;amp;&lt;/font&gt;&lt;/b&gt;&lt;/div&gt;&lt;div&gt;&lt;b&gt;&lt;font style=&quot;font-size: 17px;&quot;&gt;should&amp;nbsp; be in Complete stop&lt;/font&gt;&lt;/b&gt;&lt;/div&gt;" style="rounded=0;whiteSpace=wrap;html=1;" vertex="1" parent="WIyWlLk6GJQsqaUBKTNV-1">
          <mxGeometry x="924" y="1140" width="288" height="216" as="geometry" />
        </mxCell>
        <mxCell id="7wikcRFZf2UDu9N1v2jD-104" value="&lt;b&gt;&lt;font style=&quot;font-size: 17px;&quot;&gt;Gearbox BTN pressed&lt;/font&gt;&lt;/b&gt;" style="rounded=0;whiteSpace=wrap;html=1;" vertex="1" parent="WIyWlLk6GJQsqaUBKTNV-1">
          <mxGeometry x="12" y="576" width="180" height="65" as="geometry" />
        </mxCell>
        <mxCell id="7wikcRFZf2UDu9N1v2jD-146" value="Block Diagram" style="swimlane;startSize=216;fontSize=50;strokeColor=#3A74D7;strokeWidth=14;" vertex="1" parent="WIyWlLk6GJQsqaUBKTNV-1">
          <mxGeometry x="1573" y="1260" width="2472" height="1800" as="geometry" />
        </mxCell>
        <mxCell id="7wikcRFZf2UDu9N1v2jD-154" value="" style="rounded=0;whiteSpace=wrap;html=1;fillColor=none;strokeWidth=6;strokeColor=#CCE5FF;" vertex="1" parent="7wikcRFZf2UDu9N1v2jD-146">
          <mxGeometry x="892" y="840" width="1039" height="492" as="geometry" />
        </mxCell>
        <mxCell id="7wikcRFZf2UDu9N1v2jD-157" value="&lt;h1 style=&quot;&quot;&gt;&lt;font style=&quot;font-size: 61px;&quot; color=&quot;#ffffcc&quot;&gt;MCU&lt;/font&gt;&lt;/h1&gt;" style="text;html=1;spacing=5;spacingTop=-20;whiteSpace=wrap;overflow=hidden;rounded=0;align=center;verticalAlign=middle;strokeColor=#FFFFFF;strokeWidth=5;" vertex="1" parent="7wikcRFZf2UDu9N1v2jD-146">
          <mxGeometry x="1331" y="1044" width="190" height="72" as="geometry" />
        </mxCell>
        <mxCell id="7wikcRFZf2UDu9N1v2jD-188" style="edgeStyle=orthogonalEdgeStyle;rounded=0;orthogonalLoop=1;jettySize=auto;html=1;exitX=0;exitY=1;exitDx=0;exitDy=0;entryX=0.25;entryY=0;entryDx=0;entryDy=0;strokeWidth=5;endArrow=none;endFill=0;" edge="1" parent="7wikcRFZf2UDu9N1v2jD-146" source="7wikcRFZf2UDu9N1v2jD-158" target="7wikcRFZf2UDu9N1v2jD-164">
          <mxGeometry relative="1" as="geometry">
            <Array as="points">
              <mxPoint x="440" y="972" />
            </Array>
          </mxGeometry>
        </mxCell>
        <mxCell id="7wikcRFZf2UDu9N1v2jD-189" style="edgeStyle=orthogonalEdgeStyle;rounded=0;orthogonalLoop=1;jettySize=auto;html=1;exitX=0.75;exitY=1;exitDx=0;exitDy=0;entryX=0.25;entryY=0;entryDx=0;entryDy=0;strokeWidth=5;endArrow=none;endFill=0;" edge="1" parent="7wikcRFZf2UDu9N1v2jD-146" source="7wikcRFZf2UDu9N1v2jD-158" target="7wikcRFZf2UDu9N1v2jD-185">
          <mxGeometry relative="1" as="geometry">
            <Array as="points">
              <mxPoint x="1150" y="1056" />
              <mxPoint x="1265" y="1056" />
              <mxPoint x="1265" y="1248" />
              <mxPoint x="1196" y="1248" />
            </Array>
          </mxGeometry>
        </mxCell>
        <mxCell id="7wikcRFZf2UDu9N1v2jD-158" value="&lt;h1 style=&quot;font-size: 43px;&quot;&gt;&lt;font color=&quot;#ffffcc&quot;&gt;DIO&lt;/font&gt;&lt;/h1&gt;" style="text;html=1;spacing=5;spacingTop=-20;whiteSpace=wrap;overflow=hidden;rounded=0;align=center;verticalAlign=middle;strokeColor=default;strokeWidth=4;" vertex="1" parent="7wikcRFZf2UDu9N1v2jD-146">
          <mxGeometry x="1007" y="900" width="190" height="72" as="geometry" />
        </mxCell>
        <mxCell id="7wikcRFZf2UDu9N1v2jD-159" value="&lt;h1 style=&quot;font-size: 43px;&quot;&gt;&lt;font color=&quot;#ffffcc&quot;&gt;EXT_INT&lt;/font&gt;&lt;/h1&gt;" style="text;html=1;spacing=5;spacingTop=-20;whiteSpace=wrap;overflow=hidden;rounded=0;align=center;verticalAlign=middle;strokeColor=default;strokeWidth=5;" vertex="1" parent="7wikcRFZf2UDu9N1v2jD-146">
          <mxGeometry x="1031" y="1116" width="190" height="72" as="geometry" />
        </mxCell>
        <mxCell id="7wikcRFZf2UDu9N1v2jD-162" style="edgeStyle=orthogonalEdgeStyle;rounded=0;orthogonalLoop=1;jettySize=auto;html=1;exitX=1;exitY=0.25;exitDx=0;exitDy=0;entryX=0;entryY=0.25;entryDx=0;entryDy=0;strokeWidth=5;endArrow=none;endFill=0;" edge="1" parent="7wikcRFZf2UDu9N1v2jD-146" source="7wikcRFZf2UDu9N1v2jD-160" target="7wikcRFZf2UDu9N1v2jD-158">
          <mxGeometry relative="1" as="geometry">
            <mxPoint x="612" y="611.9999999999995" as="targetPoint" />
          </mxGeometry>
        </mxCell>
        <mxCell id="7wikcRFZf2UDu9N1v2jD-160" value="&lt;h1 style=&quot;font-size: 43px;&quot;&gt;&lt;font color=&quot;#ffffcc&quot;&gt;LCD&lt;/font&gt;&lt;/h1&gt;&lt;div style=&quot;font-size: 43px;&quot;&gt;&lt;font style=&quot;font-size: 43px;&quot; color=&quot;#ffffcc&quot;&gt;PA3,PA2,PB0,PB1,PB2,PB4&lt;/font&gt;&lt;/div&gt;" style="text;html=1;spacing=5;spacingTop=-20;whiteSpace=wrap;overflow=hidden;rounded=0;align=center;verticalAlign=middle;strokeColor=#000000;strokeWidth=6;" vertex="1" parent="7wikcRFZf2UDu9N1v2jD-146">
          <mxGeometry x="81" y="780" width="579" height="156" as="geometry" />
        </mxCell>
        <mxCell id="7wikcRFZf2UDu9N1v2jD-164" value="&lt;h1 style=&quot;font-size: 43px;&quot;&gt;&lt;font color=&quot;#ffffcc&quot;&gt;Accelerate&lt;/font&gt;&lt;/h1&gt;&lt;div style=&quot;font-size: 43px;&quot;&gt;&lt;font style=&quot;font-size: 43px;&quot; color=&quot;#ffffcc&quot;&gt;PD7&lt;/font&gt;&lt;/div&gt;" style="text;html=1;spacing=5;spacingTop=-20;whiteSpace=wrap;overflow=hidden;rounded=0;align=center;verticalAlign=middle;strokeColor=#000000;strokeWidth=6;" vertex="1" parent="7wikcRFZf2UDu9N1v2jD-146">
          <mxGeometry x="371" y="1524" width="276" height="156" as="geometry" />
        </mxCell>
        <mxCell id="7wikcRFZf2UDu9N1v2jD-174" value="&lt;h1 style=&quot;font-size: 43px;&quot;&gt;&lt;font color=&quot;#ffffcc&quot;&gt;Braking&amp;nbsp;&lt;/font&gt;&lt;/h1&gt;&lt;div style=&quot;font-size: 43px;&quot;&gt;&lt;font style=&quot;font-size: 43px;&quot; color=&quot;#ffffcc&quot;&gt;INT1 (PD3)&lt;/font&gt;&lt;/div&gt;" style="text;html=1;spacing=5;spacingTop=-20;whiteSpace=wrap;overflow=hidden;rounded=0;align=center;verticalAlign=middle;strokeColor=#000000;strokeWidth=6;" vertex="1" parent="7wikcRFZf2UDu9N1v2jD-146">
          <mxGeometry x="731" y="1524" width="276" height="156" as="geometry" />
        </mxCell>
        <mxCell id="7wikcRFZf2UDu9N1v2jD-185" value="&lt;h1 style=&quot;font-size: 43px;&quot;&gt;&lt;font color=&quot;#ffffcc&quot;&gt;ACCS&lt;/font&gt;&lt;/h1&gt;&lt;div style=&quot;font-size: 43px;&quot;&gt;&lt;font style=&quot;font-size: 43px;&quot; color=&quot;#ffffcc&quot;&gt;PD5&lt;/font&gt;&lt;/div&gt;" style="text;html=1;spacing=5;spacingTop=-20;whiteSpace=wrap;overflow=hidden;rounded=0;align=center;verticalAlign=middle;strokeColor=#000000;strokeWidth=6;" vertex="1" parent="7wikcRFZf2UDu9N1v2jD-146">
          <mxGeometry x="1127" y="1524" width="276" height="156" as="geometry" />
        </mxCell>
        <mxCell id="7wikcRFZf2UDu9N1v2jD-190" style="edgeStyle=orthogonalEdgeStyle;rounded=0;orthogonalLoop=1;jettySize=auto;html=1;exitX=0.25;exitY=0;exitDx=0;exitDy=0;strokeWidth=5;endArrow=none;endFill=0;" edge="1" parent="7wikcRFZf2UDu9N1v2jD-146" source="7wikcRFZf2UDu9N1v2jD-186">
          <mxGeometry relative="1" as="geometry">
            <mxPoint x="1271" y="1248" as="targetPoint" />
          </mxGeometry>
        </mxCell>
        <mxCell id="7wikcRFZf2UDu9N1v2jD-186" value="&lt;h1 style=&quot;font-size: 43px;&quot;&gt;&lt;font color=&quot;#ffffcc&quot;&gt;Gear Box&lt;/font&gt;&lt;/h1&gt;&lt;div style=&quot;font-size: 43px;&quot;&gt;&lt;font style=&quot;font-size: 43px;&quot; color=&quot;#ffffcc&quot;&gt;PD6&lt;/font&gt;&lt;/div&gt;" style="text;html=1;spacing=5;spacingTop=-20;whiteSpace=wrap;overflow=hidden;rounded=0;align=center;verticalAlign=middle;strokeColor=#000000;strokeWidth=6;" vertex="1" parent="7wikcRFZf2UDu9N1v2jD-146">
          <mxGeometry x="1478" y="1524" width="276" height="168" as="geometry" />
        </mxCell>
        <mxCell id="7wikcRFZf2UDu9N1v2jD-187" value="" style="endArrow=none;html=1;rounded=0;exitX=0.5;exitY=0;exitDx=0;exitDy=0;entryX=0;entryY=1;entryDx=0;entryDy=0;strokeWidth=5;" edge="1" parent="7wikcRFZf2UDu9N1v2jD-146" source="7wikcRFZf2UDu9N1v2jD-174" target="7wikcRFZf2UDu9N1v2jD-159">
          <mxGeometry width="50" height="50" relative="1" as="geometry">
            <mxPoint x="1031" y="1394" as="sourcePoint" />
            <mxPoint x="1081" y="1344" as="targetPoint" />
          </mxGeometry>
        </mxCell>
        <mxCell id="7wikcRFZf2UDu9N1v2jD-197" style="edgeStyle=orthogonalEdgeStyle;rounded=0;orthogonalLoop=1;jettySize=auto;html=1;exitX=0.5;exitY=1;exitDx=0;exitDy=0;entryX=0;entryY=0;entryDx=0;entryDy=0;strokeWidth=5;endArrow=none;endFill=0;" edge="1" parent="7wikcRFZf2UDu9N1v2jD-146" source="7wikcRFZf2UDu9N1v2jD-191" target="7wikcRFZf2UDu9N1v2jD-158">
          <mxGeometry relative="1" as="geometry" />
        </mxCell>
        <mxCell id="7wikcRFZf2UDu9N1v2jD-191" value="&lt;h1 style=&quot;font-size: 43px;&quot;&gt;&lt;font color=&quot;#ffffcc&quot;&gt;Blue led&lt;/font&gt;&lt;/h1&gt;&lt;div style=&quot;font-size: 43px;&quot;&gt;&lt;font style=&quot;font-size: 43px;&quot; color=&quot;#ffffcc&quot;&gt;(Accelerate)&lt;/font&gt;&lt;/div&gt;&lt;div style=&quot;font-size: 43px;&quot;&gt;&lt;font style=&quot;font-size: 43px;&quot; color=&quot;#ffffcc&quot;&gt;PA5&lt;/font&gt;&lt;/div&gt;" style="text;html=1;spacing=5;spacingTop=-20;whiteSpace=wrap;overflow=hidden;rounded=0;align=center;verticalAlign=middle;strokeColor=#000000;strokeWidth=6;" vertex="1" parent="7wikcRFZf2UDu9N1v2jD-146">
          <mxGeometry x="414" y="300" width="324" height="204" as="geometry" />
        </mxCell>
        <mxCell id="7wikcRFZf2UDu9N1v2jD-198" style="edgeStyle=orthogonalEdgeStyle;rounded=0;orthogonalLoop=1;jettySize=auto;html=1;exitX=0.25;exitY=1;exitDx=0;exitDy=0;entryX=0.25;entryY=0;entryDx=0;entryDy=0;strokeWidth=5;endArrow=none;endFill=0;" edge="1" parent="7wikcRFZf2UDu9N1v2jD-146" source="7wikcRFZf2UDu9N1v2jD-192" target="7wikcRFZf2UDu9N1v2jD-158">
          <mxGeometry relative="1" as="geometry">
            <Array as="points">
              <mxPoint x="909" y="672" />
              <mxPoint x="1055" y="672" />
            </Array>
          </mxGeometry>
        </mxCell>
        <mxCell id="7wikcRFZf2UDu9N1v2jD-192" value="&lt;h1 style=&quot;font-size: 43px;&quot;&gt;&lt;font color=&quot;#ffffcc&quot;&gt;Red led&lt;/font&gt;&lt;/h1&gt;&lt;div style=&quot;font-size: 43px;&quot;&gt;&lt;font style=&quot;font-size: 43px;&quot; color=&quot;#ffffcc&quot;&gt;(Braking)&lt;/font&gt;&lt;/div&gt;&lt;div style=&quot;font-size: 43px;&quot;&gt;&lt;font style=&quot;font-size: 43px;&quot; color=&quot;#ffffcc&quot;&gt;PB7&lt;/font&gt;&lt;/div&gt;" style="text;html=1;spacing=5;spacingTop=-20;whiteSpace=wrap;overflow=hidden;rounded=0;align=center;verticalAlign=middle;strokeColor=#000000;strokeWidth=6;" vertex="1" parent="7wikcRFZf2UDu9N1v2jD-146">
          <mxGeometry x="828" y="300" width="324" height="228" as="geometry" />
        </mxCell>
        <mxCell id="7wikcRFZf2UDu9N1v2jD-199" style="edgeStyle=orthogonalEdgeStyle;rounded=0;orthogonalLoop=1;jettySize=auto;html=1;exitX=0.25;exitY=1;exitDx=0;exitDy=0;entryX=0.5;entryY=0;entryDx=0;entryDy=0;strokeWidth=5;endArrow=none;endFill=0;" edge="1" parent="7wikcRFZf2UDu9N1v2jD-146" source="7wikcRFZf2UDu9N1v2jD-193" target="7wikcRFZf2UDu9N1v2jD-158">
          <mxGeometry relative="1" as="geometry" />
        </mxCell>
        <mxCell id="7wikcRFZf2UDu9N1v2jD-193" value="&lt;h1 style=&quot;font-size: 43px;&quot;&gt;&lt;font color=&quot;#ffffcc&quot;&gt;Green led&lt;/font&gt;&lt;/h1&gt;&lt;div style=&quot;font-size: 43px;&quot;&gt;&lt;font style=&quot;font-size: 43px;&quot; color=&quot;#ffffcc&quot;&gt;(ACCS)&lt;/font&gt;&lt;/div&gt;&lt;div style=&quot;font-size: 43px;&quot;&gt;&lt;font style=&quot;font-size: 43px;&quot; color=&quot;#ffffcc&quot;&gt;PA4&lt;/font&gt;&lt;/div&gt;" style="text;html=1;spacing=5;spacingTop=-20;whiteSpace=wrap;overflow=hidden;rounded=0;align=center;verticalAlign=middle;strokeColor=#000000;strokeWidth=6;" vertex="1" parent="7wikcRFZf2UDu9N1v2jD-146">
          <mxGeometry x="1248" y="300" width="324" height="216" as="geometry" />
        </mxCell>
        <mxCell id="7wikcRFZf2UDu9N1v2jD-200" style="edgeStyle=orthogonalEdgeStyle;rounded=0;orthogonalLoop=1;jettySize=auto;html=1;exitX=0.25;exitY=1;exitDx=0;exitDy=0;entryX=0.75;entryY=0;entryDx=0;entryDy=0;strokeWidth=5;endArrow=none;endFill=0;" edge="1" parent="7wikcRFZf2UDu9N1v2jD-146" source="7wikcRFZf2UDu9N1v2jD-194" target="7wikcRFZf2UDu9N1v2jD-158">
          <mxGeometry relative="1" as="geometry">
            <Array as="points">
              <mxPoint x="1703" y="516" />
              <mxPoint x="1703" y="732" />
              <mxPoint x="1150" y="732" />
            </Array>
          </mxGeometry>
        </mxCell>
        <mxCell id="7wikcRFZf2UDu9N1v2jD-194" value="&lt;h1 style=&quot;font-size: 43px;&quot;&gt;&lt;font color=&quot;#ffffcc&quot;&gt;Yellow led&lt;/font&gt;&lt;/h1&gt;&lt;div style=&quot;font-size: 43px;&quot;&gt;&lt;font style=&quot;font-size: 43px;&quot; color=&quot;#ffffcc&quot;&gt;(ACCS brake)&lt;/font&gt;&lt;/div&gt;&lt;div style=&quot;font-size: 43px;&quot;&gt;&lt;font style=&quot;font-size: 43px;&quot; color=&quot;#ffffcc&quot;&gt;PA6&lt;/font&gt;&lt;/div&gt;" style="text;html=1;spacing=5;spacingTop=-20;whiteSpace=wrap;overflow=hidden;rounded=0;align=center;verticalAlign=middle;strokeColor=#000000;strokeWidth=6;" vertex="1" parent="7wikcRFZf2UDu9N1v2jD-146">
          <mxGeometry x="1692" y="312" width="324" height="204" as="geometry" />
        </mxCell>
      </root>
    </mxGraphModel>
  </diagram>
</mxfile>
